<svg width="249" height="294" viewBox="0 0 249 294" fill="none" xmlns="http://www.w3.org/2000/svg">
<path d="M78.0091 79.6009C79.0209 79.3128 80.1442 79.8029 81.1122 79.1512C81.2622 79.0502 81.6931 79.2628 81.9345 79.4209C82.8006 79.9883 83.6554 80.5759 84.4856 81.1933C85.0499 81.6132 85.4913 81.542 85.9529 81.0405C86.4663 80.4828 87.0209 79.9619 87.6966 79.2856C88.576 80.9 90.8068 80.3194 91.773 82.2289C90.5137 82.2289 89.5027 82.2131 88.4935 82.2359C88.0091 82.2464 87.5668 82.2324 87.0648 82.5407C86.6339 82.8051 86.0863 82.5776 86.0521 83.4726C86.0257 84.148 84.9463 84.4405 84.8129 85.26C84.8059 85.3021 84.59 85.3241 84.4707 85.3311C84.0951 85.3522 82.741 84.4545 82.6251 84.0997C81.6633 81.1608 82.0003 81.8284 78.9972 80.6813C78.332 80.4274 78.3188 80.4608 78.0099 79.6001L78.0091 79.6009ZM166.701 96.3207C167 96.6202 167.152 96.7449 167.271 96.896C167.875 97.6583 168.424 97.9008 169.486 97.4203C171.12 96.6817 171.551 96.8968 173.976 97.3246C174.623 97.4388 175.616 97.805 175.929 96.8485C174.993 96.3681 173.956 96.0581 173.239 95.4002C172.645 94.8565 171.971 94.5948 171.315 94.4068C170.684 94.2259 169.933 94.4639 169.2 94.5201C168.608 93.3871 165.746 90.5536 164.573 89.995C164.2 90.9032 164.72 91.5698 165.248 92.1188C166.398 93.3133 167.124 94.6115 166.701 96.3207ZM140.405 63.792C140.405 63.2185 140.338 62.6282 140.422 62.06C140.536 61.2844 140.529 60.3007 140.996 59.8123C141.74 59.0376 141.713 58.0671 141.872 57.2573C142.098 56.1084 142.375 55.0035 142.887 53.9803C143.095 53.5648 143.198 53.3523 142.847 53.0168C142.747 52.921 142.706 52.6303 142.776 52.5117C143.621 51.0827 143.117 49.2198 144.267 47.8944C144.129 47.1838 144.608 46.576 144.629 45.9287C144.646 45.3727 144.304 44.8062 143.986 43.8286C143.927 44.4803 143.916 44.6639 143.894 44.8457C143.727 46.2414 143.021 47.5255 143.074 48.9835C143.083 49.2426 142.496 49.5228 141.956 49.9918C141.956 50.4687 142.16 51.2065 141.919 51.7449C141.036 53.7168 141.053 55.888 140.404 57.9011C140.826 58.5704 139.734 59.237 140.4 59.9072C139.72 60.4904 139.979 61.3986 139.706 62.132C139.471 62.7626 139.42 63.5549 139.254 64.2707C139.218 64.42 139.34 64.6053 139.397 64.8021C139.759 64.4393 140.078 64.1196 140.405 63.7929V63.792ZM132.309 39.0418C133.112 37.6479 132.149 36.0291 133.029 34.6985C133.088 34.6089 133.089 34.3717 133.029 34.3296C132.505 33.9633 132.715 33.4196 132.637 32.9366C132.542 32.3314 132.214 32.4341 131.948 32.6897C132.047 33.4144 132.408 34.2101 132.157 34.6809C131.85 35.2588 131.915 35.7691 131.884 36.3093C131.841 37.0787 131.922 37.856 131.863 38.6237C131.762 39.9157 131.735 39.9412 132.261 41.0768C132.261 40.39 132.012 39.5582 132.309 39.0426V39.0418ZM173.789 111.97C174.204 112.109 174.593 112.246 174.984 112.372C176.074 112.724 176.958 112.355 177.175 111.459C176.057 111.33 174.94 111.202 173.789 111.07V111.97ZM164.449 130.527C164.006 129.238 162.766 128.581 162.054 127.463C160.981 125.779 160.003 124.048 159.02 122.316C159.195 121.368 158.366 120.874 157.956 120.251C157.473 119.519 157.139 118.779 156.978 117.993H155.785C155.988 118.543 156.197 118.963 156.295 119.407C156.493 120.302 156.358 121.421 156.859 122.056C157.499 122.87 157.492 123.884 158.119 124.674C158.536 125.199 158.58 126.021 158.82 126.805C159.777 126.887 160.297 127.779 160.807 128.525C161.219 129.13 161.513 129.774 162.102 130.284C162.759 130.851 163.228 131.629 163.84 132.257C165.37 133.829 166.936 135.369 168.471 136.905H170.071C170.843 135.727 169.57 135.374 169.287 134.627C168.179 134.29 167.777 132.988 166.826 132.626C165.696 132.195 165.603 130.79 164.45 130.528L164.449 130.527ZM249 155.311C248.985 174.587 248.989 193.862 248.989 213.17C248.165 214.271 246.964 214.921 245.808 215.637C244.107 216.69 242.319 217.644 240.784 218.905C240 219.549 239.48 220.445 238.315 220.411C237.847 221.504 236.654 221.674 235.834 222.32C235.036 222.948 234.079 223.371 233.2 223.898C232.266 224.457 231.336 225.022 230.416 225.604C228.623 226.739 226.806 227.842 225.057 229.044C223.304 230.249 221.585 231.477 219.704 232.501C217.943 233.459 216.383 234.778 214.699 235.884C212.469 237.349 210.201 238.756 207.957 240.2C207.391 240.565 206.867 240.992 206.302 241.358C202.021 244.138 197.698 246.855 193.451 249.691C191.829 250.774 190.293 251.996 188.614 252.971C186.934 253.945 185.32 255.017 183.66 256.004C182.247 256.844 180.882 257.733 179.534 258.663C179.29 258.831 179.014 259.037 178.737 259.063C177.058 259.225 176.154 260.64 174.858 261.414C173.717 262.096 172.795 263.139 171.449 263.485C171.334 263.515 171.128 263.56 171.126 263.607C171.074 264.578 170.188 264.753 169.585 264.985C168.963 265.224 168.598 265.792 167.806 265.905C166.936 266.031 166.164 266.877 165.361 267.428C164.853 267.775 164.377 268.168 163.87 268.517C163.625 268.685 163.3 268.752 163.086 268.947C162.892 269.124 162.834 269.449 162.644 269.635C162.575 269.702 162.254 269.463 162.123 269.525C161.849 269.654 161.633 269.897 161.381 270.078C161.184 270.22 160.986 270.401 160.763 270.45C160.472 270.514 160.157 270.466 159.856 270.466C159.806 270.907 159.772 271.213 159.742 271.482C159.455 271.903 158.549 271.2 158.625 272.164C158.629 272.212 158.573 272.296 158.528 272.312C157.959 272.502 157.37 272.641 156.823 272.877C156.279 273.111 156.242 273.78 155.637 274.128C153.22 275.519 150.89 277.069 148.58 278.635C147.321 279.488 146.04 280.293 144.748 281.091C143.669 281.756 142.63 282.434 141.442 282.946C140.122 283.515 138.988 284.515 137.774 285.328C137.59 286.393 136.263 285.93 135.853 286.755C135.77 286.922 135.232 286.809 135 286.967C134.444 287.347 133.939 287.805 133.43 288.25C133.356 288.314 133.372 288.582 133.343 288.583C131.59 288.611 130.807 290.23 129.478 290.96C128.147 291.693 126.978 292.714 125.682 293.518C125.032 293.922 124.26 293.988 123.596 293.425C123.072 292.981 122.376 292.858 121.842 292.533C121.186 292.134 120.581 291.629 119.887 291.23C118.571 290.473 117.342 289.56 116.078 288.711C115.37 288.235 114.704 287.672 113.943 287.307C113.432 287.062 112.989 286.881 112.565 286.43C112.222 286.066 111.429 286.131 110.839 285.988C110.728 285.962 110.611 285.878 110.537 285.789C109.492 284.506 108.113 283.654 106.751 282.76C105.382 281.861 104.075 280.897 102.609 280.121C100.895 279.214 99.3342 278.003 97.7554 276.856C97.0955 276.377 96.4926 275.93 95.6264 275.875C95.1745 275.847 94.7094 275.589 94.3136 275.336C94.1855 275.254 94.2583 274.858 94.232 274.517C92.4189 273.588 90.7532 272.608 89.2008 271.435C88.5681 270.957 87.9353 270.456 87.235 270.095C85.5536 269.226 84.0012 268.178 82.4645 267.076C81.8467 266.633 81.4193 265.958 80.5286 265.742C79.7581 265.555 79.1394 264.764 78.4382 264.261C77.744 263.763 77.0323 263.29 76.3223 262.814C76.2267 262.75 76.0327 262.775 75.9906 262.699C75.6528 262.098 74.6163 262.677 74.5075 261.926C74.3864 261.092 73.4211 261.99 73.2473 261.134C73.1552 260.682 72.4312 260.308 71.9292 260.002C71.1631 259.535 70.1968 259.306 69.5834 258.702C68.8849 258.015 67.8546 258.072 67.2122 257.299C66.8138 256.82 65.9555 256.721 65.5667 256.239C65.1903 255.771 64.4004 255.878 64.26 255.07C64.203 254.745 63.171 255.198 63.0709 254.268C63.0367 253.953 62.3574 253.62 61.9134 253.453C59.4921 252.544 57.5044 250.937 55.3974 249.517C53.4333 248.192 51.4597 246.877 49.4395 245.642C47.2631 244.312 45.2201 242.78 43.0147 241.497C42.5417 241.222 42.1187 240.665 41.6439 240.631C40.7076 240.563 40.5057 239.565 39.6536 239.369C38.9691 239.211 38.4276 238.601 37.8914 238.03C37.3965 237.503 36.5865 237.149 35.909 236.794C34.081 235.837 32.3837 234.688 30.647 233.595C29.6668 232.979 28.7383 232.267 27.8089 231.595C26.6119 230.73 25.1578 230.34 24.0731 229.33C23.6694 228.953 22.9787 229.021 22.7488 228.28C22.6505 227.961 21.5676 228.391 21.6176 227.463C20.5347 227.613 20.2582 226.368 19.2718 226.15C18.3855 225.954 17.5491 225.235 16.8462 224.58C16.0994 223.885 15.1718 223.603 14.339 223.114C13.6387 222.704 13.0928 222.097 12.4732 221.589C11.2552 220.588 9.75186 220.013 8.47586 219.051C7.76941 218.518 6.89183 218.263 6.16081 217.599C5.51316 217.012 4.50394 216.699 3.71588 216.148C2.9164 215.59 2.06691 215.095 1.30692 214.488C0.446018 213.799 -0.0112001 212.915 0.000208419 211.73C0.0467201 207.009 0.0195151 202.287 0.0195151 197.565C0.0195151 183.982 0.01776 170.398 0.0221479 156.815C0.0221479 155.507 -0.139327 154.173 0.631187 152.867C1.41223 152.867 2.32667 152.748 3.19635 152.895C4.43374 153.104 5.04804 152.239 6.14238 151.634C4.74089 151.213 3.62022 150.857 2.48727 150.546C1.95458 150.4 1.56405 150.186 1.5702 149.564C1.57634 148.949 1.9537 148.728 2.49429 148.586C3.14633 148.416 3.75273 148.147 4.47059 148.179C4.99188 148.203 5.54475 148.002 6.05024 147.811C7.64129 147.212 9.26744 146.661 10.4767 145.309C10.3978 145.242 10.3249 145.159 10.2337 145.107C9.32448 144.588 8.26875 144.328 7.06647 144.329C6.48464 144.329 5.89841 144.374 5.3236 144.312C4.97959 144.275 4.65313 144.071 4.31877 143.941C2.9515 143.413 2.72509 142.167 3.76239 141.141C4.10026 140.807 4.24593 140.941 4.46445 141.2C4.49341 141.235 4.59082 141.239 4.64435 141.221C6.17661 140.707 7.70798 140.191 9.2376 139.67C10.3065 139.306 10.6953 138.565 10.4013 137.371C9.80978 137.244 8.95239 137.594 8.58907 136.781C8.34598 136.238 8.21083 135.645 8.00811 135.014C7.26305 135.014 6.49517 135.002 5.72729 135.019C5.12702 135.032 4.74791 134.789 4.67682 134.175C4.60837 133.584 4.88744 133.216 5.46401 133.074C5.99232 132.944 6.51447 132.74 7.04892 132.698C9.76327 132.486 11.9353 131.303 13.7361 129.171C13.2692 128.597 12.6215 128.68 12.2933 128.84C10.8137 129.558 9.27709 129.127 7.78258 129.14C7.10596 129.146 6.41882 128.592 5.96774 127.961C5.60355 127.453 5.95546 126.568 6.57678 126.487C7.02172 126.429 7.47981 126.478 7.93264 126.475C9.2297 126.467 11.8054 125.685 12.9085 124.917C13.801 124.296 14.4636 123.522 14.3451 122.206C13.2043 122.206 12.1178 122.163 11.0366 122.219C10.1371 122.265 9.3745 121.868 8.55836 121.633C7.53422 121.337 7.16388 120.672 7.46665 119.489C8.88569 119.489 10.353 119.492 11.8194 119.488C12.6789 119.486 13.5099 119.179 14.3126 118.567V116.427H11.4965C11.005 115.91 10.496 115.375 9.83084 114.674C11.199 114.296 12.3276 113.938 13.4781 113.68C14.6812 113.409 14.7119 113.431 14.7541 112.279C14.7637 112.023 14.7558 111.768 14.7558 111.358C14.0222 111.454 13.3868 111.2 12.6031 111.661C11.8124 112.125 10.7514 111.614 10.2609 110.916C9.88525 110.381 10.1529 109.549 10.8014 109.41C11.6422 109.231 12.4996 109.126 13.3534 109.013C14.6101 108.848 15.034 108.398 15.048 107.193C13.9572 107.001 12.8717 106.81 11.7861 106.619C11.7229 105.419 11.8809 105.169 12.7769 105.134C13.3578 105.111 13.9397 105.129 14.5847 105.129C14.8532 104.826 15.1516 104.49 15.5123 104.082V102.19C14.7102 101.805 13.464 101.935 13.134 100.528C14.2301 100.362 15.3692 100.725 16.2574 99.9192C16.7514 98.2741 15.0902 97.8656 14.4346 96.7695C14.7725 96.2487 15.17 95.972 15.8984 96.3453C16.3118 96.5569 16.8304 96.564 17.3754 96.679C17.8475 95.0111 18.2881 93.4565 18.7804 91.7156C19.2815 91.973 19.8449 92.0757 19.9757 92.3709C20.1924 92.8583 20.1292 93.4705 20.1845 94.0291C19.2008 94.6387 19.5825 95.8543 18.9936 96.6904C20.0853 97.7427 21.4623 97.2412 22.8445 97.4063C22.8638 97.7198 22.8857 98.0703 22.9076 98.412C21.5939 98.621 20.3793 98.8142 19.1551 99.0092C18.9743 100.889 19.1376 101.212 20.7857 102.021C21.3745 102.31 22.0283 102.481 22.5847 102.819C23.2192 103.203 23.9011 103.643 23.6246 104.598C22.406 104.724 20.9202 104.359 19.1674 103.504C19.0963 104.012 19.0323 104.473 18.984 104.818C19.5053 105.225 19.8967 105.661 20.3864 105.876C20.8681 106.088 21.536 106.153 21.7019 106.643C22.0125 107.559 22.726 106.79 23.2113 107.19V108.456C21.7747 109.352 20.532 107.781 19.0489 107.852C19.2236 108.658 19.3736 109.355 19.5377 110.114C20.4452 109.981 20.7444 111.099 21.4816 111.23C22.3864 111.391 22.9217 111.82 23.5351 112.785C22.6295 112.69 22.1652 113.437 21.3745 113.124C20.7786 112.888 20.2802 112.292 19.4684 112.57V114.156C20.4601 115.342 22.1757 115.534 22.9331 116.981C22.9936 117.097 23.2604 117.1 23.428 117.163C23.7633 117.29 24.1038 117.407 24.4294 117.554C24.9743 117.801 25.5184 118.293 26.0459 118.271C26.7242 118.243 27.4035 117.847 28.0476 117.538C28.5601 117.292 29.0209 116.937 29.8037 116.44H26.5821C26.3758 115.428 25.3877 115.505 24.8374 115.022C24.9998 113.871 25.1227 113.673 25.959 113.679C28.461 113.696 30.4803 112.448 32.5057 111.221C32.991 110.927 33.1262 110.45 32.841 109.752C31.1235 110.429 29.3166 110.666 27.4544 110.58C26.4469 110.534 25.5939 110.061 24.6874 109.748C24.504 109.685 24.4934 109.12 24.3837 108.714C25.5 108.632 26.5426 108.714 27.4842 108.446C28.6795 108.105 29.8484 107.573 30.9226 106.942C31.6106 106.538 32.1082 105.809 32.8445 105.072C32.1406 104.783 31.5887 104.338 31.1016 104.4C29.9248 104.551 28.8998 103.829 27.7677 103.977C26.9726 104.081 26.3258 103.755 25.6562 103.43V102.536C28.0011 102.041 30.2802 101.534 32.4346 100.514C33.142 100.179 33.4158 99.8498 33.3587 99.0004C32.8313 98.9741 32.2802 98.9723 31.7352 98.9152C30.6883 98.8046 29.6246 98.7431 28.6084 98.4936C28.1836 98.3891 27.8633 97.8577 27.5263 97.5486C27.6615 96.7554 28.1354 96.6711 28.7646 96.5649C30.4496 96.2803 32.0976 95.8411 32.9822 94.1249C33.2876 93.532 34.1231 93.3001 34.1661 92.4042H30.1301C29.9274 92.016 29.7624 91.7007 29.5325 91.2607C29.8949 90.9989 30.289 90.6151 30.7585 90.3981C31.7887 89.923 33.0498 90.0934 33.9678 89.2335C34.1915 89.0245 34.7681 89.4856 34.9129 88.905C35.0393 88.3991 35.6615 87.9801 35.0797 87.2037C34.5891 87.3688 34.0231 87.5164 33.4921 87.7456C32.1213 88.3367 30.8778 88.0355 30.0441 86.8585C29.7536 86.4492 29.7615 86.0645 30.1205 85.6675C31.2174 84.4528 32.676 83.787 34.0599 83.0018C34.2679 82.8832 34.4285 82.6812 34.848 82.3062C33.6571 82.2034 32.8102 82.0594 32.167 82.6513C31.737 82.2131 31.3921 81.8617 31.0252 81.4876C31.2745 80.6672 32.0459 80.5276 32.7146 80.3018C33.7027 79.9681 34.69 79.6361 35.3903 78.8227C35.6115 78.5663 35.6633 78.164 35.8467 77.6871C35.2306 77.6177 34.7523 77.5641 34.2767 77.5114C34.1003 77.1293 33.9248 76.749 33.6852 76.2291C34.3355 75.7231 35.0086 75.1997 35.7203 74.6463C34.4794 74.0025 32.8804 75.1593 31.6826 73.7285C32.0002 73.4456 32.2618 73.0223 32.6005 72.9468C33.5614 72.7316 34.554 72.6534 35.5351 72.5304C36.1091 72.4584 36.4276 72.1536 36.4978 71.5766C35.2148 71.3119 34.5718 70.6464 34.5689 69.5802C35.2306 69.249 35.8747 68.9214 36.6716 69.0189C37.2727 69.0927 37.572 68.6658 37.6264 68.1055C37.6633 67.7207 37.6185 67.329 37.6369 66.9417C37.6659 66.3119 37.2833 66.0335 36.7514 65.9369C35.8563 65.7753 35.2499 65.1315 34.4276 64.7792C35.3298 64.2004 36.2179 64.4771 37.0814 64.3524C38.0924 63.5821 37.4324 62.4561 37.701 61.381C37.3052 61.3213 36.9006 61.3617 36.6251 61.1913C36.3495 61.0218 36.2021 60.6423 35.8484 60.1426H39.1841C39.1841 58.5967 39.1683 57.1853 39.1902 55.7747C39.2016 55.0307 39.5606 54.6636 40.1687 54.6724C40.7611 54.6812 41.192 55.0773 41.0963 55.801C40.9586 56.8445 41.4272 57.7606 41.5211 58.7478C41.543 58.9753 41.6545 59.2203 41.794 59.4048C42.0608 59.757 42.3925 60.0591 42.6698 60.4052C42.898 60.6898 43.0454 61.0508 43.3052 61.2976C43.5878 61.5655 43.9581 61.7411 44.5321 62.1144C44.0977 62.2857 43.9134 62.3981 43.7159 62.4271C43.4632 62.4649 43.1806 62.3753 42.9463 62.4508C42.6084 62.5597 42.2626 62.7231 42.0046 62.9558C41.9081 63.0428 42.0871 63.395 42.0634 63.6181C42.031 63.9176 41.9239 64.2092 41.8537 64.4868C42.884 65.1877 44.0248 65.676 44.8181 66.8609C43.4219 67.4502 42.418 66.8819 41.4465 66.2223C40.8954 67.8525 41.2964 69.0655 42.7866 70.101C44.2319 71.1058 45.7379 72.0254 47.2069 72.996C47.6036 73.2586 47.8607 73.6538 47.7036 74.136C47.5307 74.6648 47.1279 74.9599 46.54 74.8527C45.701 74.699 44.8664 74.5207 43.8818 74.324C44.5072 75.2667 45.2742 75.9618 46.1828 76.4091C46.979 76.8008 47.6194 77.4602 48.1038 78.3871C47.3236 79.2215 46.4619 79.3401 45.3122 78.8675C44.3802 78.4846 43.5342 78.0077 42.9068 77.1926C42.7163 77.4877 42.1082 77.4666 42.5759 78.1605C42.9068 78.6515 42.6786 79.5315 42.6698 80.2377C42.6602 80.9474 43.0244 81.3813 43.5272 81.8609C45.5667 83.8028 48.224 84.9666 50.0836 87.1238C50.1916 87.2494 50.2969 87.3767 50.4347 87.5418C49.4105 87.8844 48.5163 87.6551 47.751 87.093C46.7673 86.371 45.5325 86.1172 44.6251 85.2196C44.2091 84.8076 43.4404 84.7523 42.6742 84.48C42.6742 85.4356 42.6216 86.2648 42.6918 87.0834C42.7409 87.6569 42.9173 88.2322 43.5948 88.4518C43.7598 88.5054 43.8669 88.7162 44.0248 88.8172C45.034 89.4654 45.4298 90.6801 46.6655 91.2457C47.7185 91.7279 48.6137 92.7081 49.6799 93.3353C49.9362 93.4855 50.1196 93.7586 50.4505 94.0889C51.2104 93.1719 51.9064 92.3919 52.5321 91.5593C53.0788 90.8312 53.4 89.843 54.0898 89.3363C54.8041 88.8119 55.0727 87.9793 55.7896 87.4944C56.1652 87.2406 56.3557 86.7136 56.6304 86.3096C56.9042 85.9055 57.1718 85.4971 57.4544 85.0992C57.7703 84.6548 58.0459 83.9214 58.4382 83.8485C59.1481 83.7176 59.0358 83.1125 59.3166 82.7849C60.891 80.9439 62.4364 79.0678 63.8309 77.0907C64.2758 76.4601 64.8814 75.9603 65.242 75.2032C65.5237 74.6103 66.1591 74.035 66.6909 73.4957C67.3 72.8774 67.8993 72.2098 68.332 71.4642C69.6387 69.2121 71.7431 67.5802 73.013 65.2948C73.4272 64.5491 74.3583 64.146 74.6321 63.2457C75.7519 63.3186 74.898 62.0529 75.6843 61.7315C76.2846 61.4864 76.6997 60.7759 77.1789 60.2559C77.2456 60.183 77.1789 59.9116 77.2175 59.901C78.3373 59.6086 78.5847 58.6486 79.0016 57.7518C79.307 57.0948 79.8985 56.574 80.339 55.9749C80.798 55.3522 81.3474 54.8199 81.8923 54.2754C82.4514 53.7168 82.9103 53.0607 83.4536 52.4854C84.2627 51.6281 85.1806 50.8543 85.3351 49.5737C85.3482 49.4631 85.4211 49.3032 85.508 49.2663C87.5036 48.4293 87.9582 46.2062 89.4246 44.8782C89.8116 44.5278 89.7379 43.7513 90.26 43.292C90.7603 42.8519 91.0938 42.2257 91.515 41.6925C91.8844 41.2244 92.2671 40.7659 92.655 40.3127C93.0358 39.8674 93.4816 39.4678 93.8107 38.9873C95.0639 37.1604 96.612 35.5601 97.7809 33.6585C98.1907 32.9928 98.7954 32.5334 98.9718 31.6393C99.0867 31.0569 99.8028 30.4632 100.393 30.1347C101.424 29.5612 101.941 28.6714 102.42 27.6851C102.605 27.3039 102.938 26.9973 103.155 26.6284C103.239 26.4853 103.192 26.2639 103.209 26.011H104.077C104.362 25.578 104.559 25.1915 104.836 24.8736C105.932 23.6123 107.103 22.4072 107.812 20.8649C108.069 20.3054 108.924 20.4758 109.041 19.6458C109.105 19.1934 109.4 18.5452 110.119 18.3599C110.365 18.2958 110.46 17.7477 110.683 17.4667C112.227 15.515 113.785 13.5757 115.339 11.6337C115.38 11.5837 115.445 11.5494 115.474 11.4949C116.617 9.39488 118.459 7.83586 119.791 5.8974C120.152 5.37304 120.548 4.90753 120.971 4.46574C121.878 3.51803 122.641 2.47282 123.344 1.37053C123.58 0.999876 123.931 0.696854 124.253 0.388563C124.881 -0.213088 124.804 -0.0822176 125.732 0.548418C126.996 1.40917 127.64 2.65639 128.403 3.88604C129.051 4.92949 129.949 5.81659 130.737 6.77221C131.564 6.78978 131.462 7.43446 131.536 7.9597C132.344 8.04929 132.501 8.77478 132.9 9.29563C133.665 10.2925 134.489 11.2517 135.369 12.1484C135.745 12.5314 135.668 13.2779 135.773 13.2981C136.744 13.4861 136.893 14.404 137.368 14.9907C138.838 16.8106 140.489 18.4961 141.583 20.6075C141.752 20.9325 142.276 21.0537 142.558 21.3445C142.802 21.5974 142.898 21.9883 143.125 22.2641C144.437 23.86 145.763 25.4453 147.098 27.0211C147.491 27.4848 147.316 28.234 148.143 28.5502C148.682 28.7557 148.99 29.5691 149.401 30.1101C149.812 30.6512 150.223 31.1922 150.635 31.7333C151.046 32.2743 151.444 32.8268 151.872 33.3538C152.413 34.0186 153.347 34.4271 153.239 35.5048C154.246 35.5794 154.326 36.5842 154.85 37.1384C155.669 38.0053 156.419 38.9381 157.19 39.8498C157.581 40.3118 157.443 41.0426 158.24 41.3711C158.782 41.5942 159.09 42.3899 159.497 42.9336C159.867 43.4264 160.214 43.9358 160.599 44.4153C161.024 44.9467 161.584 45.3314 161.863 46.0279C162.107 46.6366 162.623 47.1487 163.069 47.659C163.679 48.3564 164.549 48.8711 164.571 49.9505C165.638 49.9646 165.561 51.1117 166.169 51.6027C166.445 51.8257 166.352 52.5574 166.627 52.7216C167.222 53.0774 167.482 53.8389 167.978 54.0418C168.604 54.2973 168.735 54.8015 168.996 55.2011C169.512 55.9899 170.371 56.4633 170.793 57.3258C171.005 57.7597 171.411 58.1066 171.588 58.5493C171.929 59.4048 172.487 60.0223 173.212 60.573C173.691 60.9357 174.286 61.3274 174.144 62.1197C174.128 62.2093 174.248 62.4034 174.325 62.4157C175.667 62.6256 175.941 63.9677 176.547 64.7977C177.153 65.6295 178.002 66.2689 178.476 67.2666C178.882 68.1213 179.729 68.8046 180.365 69.5784C181.626 71.1093 182.87 72.6288 183.924 74.3205C184.548 75.3226 185.447 76.1544 186.229 77.0573C186.551 77.4306 187.072 77.6827 186.939 78.3212C186.918 78.4213 187.001 78.64 187.051 78.6444C188.219 78.756 188.177 80.0331 188.92 80.5899C189.545 81.0581 189.988 81.7959 190.439 82.4634C190.701 82.8516 190.741 83.6438 191.018 83.715C191.598 83.8626 192.019 84.2437 192.165 84.6205C192.41 85.2494 192.656 85.7026 193.257 86.1067C193.843 86.501 194.361 87.1765 194.612 87.8414C194.885 88.5616 195.483 88.9032 195.892 89.446C195.969 89.5479 196.143 89.6235 196.153 89.7227C196.255 90.7934 197.292 91.1553 197.8 91.9185C198.346 92.7389 198.986 93.496 199.565 94.2953C200.1 95.0348 200.607 95.7937 201.071 96.4647C201.856 96.3769 202.643 96.2399 203.432 96.2135C204.363 96.1819 205.035 95.7735 205.793 94.9619C205.161 94.6782 204.679 94.2663 204.234 94.3032C203.357 94.3761 202.979 93.8016 202.48 93.3282C203.139 92.2804 204.227 92.1144 205.313 91.9282C206.494 91.7262 207.362 90.8672 207.484 89.8149C207.587 88.9234 207.307 88.5695 206.385 88.4395C206.099 88.3991 205.811 88.3701 205.454 88.3279C205.672 87.4268 206.329 87.0447 206.835 86.6143C207.322 86.2006 208 86.0118 208.554 85.7439C208.476 84.4721 207.317 84.4273 206.44 83.7923C207.168 83.39 207.713 83.0879 208.258 82.7857C208.192 82.3624 207.634 81.6424 206.584 80.6259C206.924 80.373 207.209 80.0348 207.566 79.9171C209.064 79.4244 209.304 78.2044 209.417 76.8904C209.426 76.7736 209.376 76.6506 209.353 76.5312C208.814 76.2378 208.096 76.1948 207.726 75.3463C208.148 75.3024 208.437 75.2585 208.73 75.2445C209.044 75.2295 209.36 75.2409 209.843 75.2409C210.218 74.3064 210.601 73.3657 210.971 72.4206C211.146 71.9753 211.238 71.487 211.472 71.0786C211.751 70.592 212.229 70.4418 212.83 70.664C213.098 71.1778 212.655 71.9147 213.271 72.4084C213.355 72.476 212.975 73.0311 212.924 73.3771C212.711 74.8431 213.013 75.1847 214.491 75.2418C214.682 75.2497 214.874 75.2453 215.064 75.2673C215.114 75.2726 215.156 75.3525 215.24 75.4368C215.211 75.5791 215.21 75.8839 215.135 75.9032C214.313 76.1131 213.48 76.2791 212.589 76.4706V77.8048C213.688 78.4187 214.635 79.4402 216.01 79.5623V80.4749C214.738 81.239 213.506 80.0287 212.137 80.3624C212.137 80.9474 212.159 81.5174 212.13 82.0848C212.106 82.5565 212.26 82.8911 212.56 83.2767C213.105 83.9785 213.288 84.7795 212.797 85.6657C212.371 86.436 212.643 87.0957 213.263 87.6753C214.13 88.486 215.301 88.3877 216.281 88.8312C216.602 88.9761 216.897 89.1746 217.361 89.4381C216.877 89.6744 216.564 89.9309 216.225 89.9695C215.587 90.0424 214.93 89.9423 214.291 90.0099C213.951 90.0459 213.633 90.284 213.256 90.4517C213.849 91.2141 214.311 91.951 214.916 92.5413C215.486 93.0981 216.208 93.5004 216.961 94.0414C216.67 94.4296 216.488 94.7546 216.231 94.9988C215.607 95.5917 215.225 95.6338 214.657 95.0032C214.084 94.369 213.488 94.0643 212.528 94.3629C212.493 95.1982 212.679 96.1643 213.261 96.6456C214.02 97.2719 214.813 98.1739 215.915 98.1107C217.259 98.0334 218.501 98.4488 219.842 98.6254V99.5424C218.824 100.031 217.714 100.02 216.599 100.12C215.414 100.227 214.574 99.2595 213.373 99.2762V101.128C213.75 101.5 214.209 101.953 214.606 102.344C216.132 102.415 217.598 102.472 219.063 102.569C219.209 102.579 219.339 102.826 219.466 102.954C218.297 104.723 216.516 104.848 214.646 104.728C214.16 105.461 214.521 105.942 215.13 106.28C215.49 106.479 215.912 106.601 216.321 106.672C217.577 106.891 218.421 107.844 219.469 108.432C219.577 108.493 219.484 108.917 219.484 109.192C218.532 109.982 217.538 109.948 216.484 109.307C216.187 109.126 215.798 109.038 215.445 109.023C214.367 108.977 214.143 109.208 214.078 110.31C214.064 110.568 214.077 110.827 214.076 111.086C214.153 111.184 214.234 111.278 214.308 111.379C215.426 112.88 217.11 113.236 218.782 113.693C219.972 114.018 221.363 113.939 222.274 115.119C221.915 116.268 220.791 116.244 220.016 116.328C218.423 116.503 216.745 116.595 215.433 115.263C215.283 115.11 214.845 115.241 214.406 115.241C214.508 115.702 214.485 116.126 214.682 116.368C214.982 116.733 215.441 116.967 215.849 117.226C216.708 117.771 217.648 117.419 218.53 117.814C219.239 118.131 219.857 118.379 220.294 119.011C219.469 120.084 219.11 120.242 217.054 120.355C218.206 121.38 218.897 122.554 219.524 123.781C219.769 124.262 220.289 124.577 220.609 125.044C220.975 125.578 221.698 125.437 222.004 125.245C222.428 124.979 222.842 125.042 223.233 124.903C224.531 124.441 225.848 123.966 226.925 123.079C227.19 122.86 227.207 122.339 227.329 121.983C226.138 121.5 225.23 122.084 224.293 122.293C223.419 122.487 222.588 122.865 221.683 123.182C221.56 122.842 221.508 122.677 221.441 122.519C220.829 121.07 221.008 120.887 222.468 120.625C224.064 120.338 225.7 120.022 226.947 118.822C227.113 118.662 227.213 118.432 227.427 118.109C226.558 117.836 225.695 117.726 225.111 118.043C224.466 118.394 223.885 118.299 223.282 118.307C222.473 118.318 222.365 118.118 222.254 116.918C224.502 116.565 226.272 115.271 228.115 114.048C226.847 113.615 225.664 113.431 224.382 114.119C224.102 113.75 223.797 113.348 223.415 112.845C223.405 112.871 223.444 112.685 223.545 112.542C224.278 111.495 225.546 111.454 226.571 110.958C226.945 110.777 227.377 110.72 227.758 110.55C227.98 110.452 228.152 110.243 228.38 110.057V108.29C227.841 108.279 227.362 108.141 226.779 108.457C226.329 108.701 225.658 108.667 225.121 108.566C224.856 108.516 224.673 108.037 224.431 107.724C225.707 107.216 226.859 106.729 228.033 106.302C228.793 106.026 228.967 105.548 228.749 104.909C227.697 104.711 226.687 104.522 225.714 104.34V103.29C226.84 103.084 227.978 102.876 229.16 102.66V100.929H227.714C227.688 100.387 227.664 99.9077 227.641 99.458C228.561 99.2868 229.396 99.1313 230.289 98.9653V97.2368C229.806 96.8494 229.302 96.4445 228.6 95.8806H230.988C231.174 94.8003 231.326 93.7718 231.534 92.7556C231.769 91.5997 232.207 91.2651 233.51 91.2492C233.341 92.6027 233.175 93.9387 233.021 95.1753C233.868 96.0089 234.689 94.3998 235.61 95.4713C234.729 95.9351 233.965 96.3365 233.175 96.7519C233.184 97.5325 234.057 98.2928 235.794 99.0329C235.794 99.2771 235.777 99.5828 235.798 99.8867C235.835 100.43 235.498 100.73 235.064 100.845C234.303 101.045 233.52 101.155 232.744 101.303C233.237 103.073 234.79 103.444 236.145 104.108V105.369C235.182 106.063 234.213 106.091 233.262 105.446C233.167 105.691 233.074 105.808 233.087 105.912C233.174 106.615 233.872 106.612 234.299 106.922C234.695 107.21 234.531 108.168 235.439 107.864C235.547 107.827 235.751 108.026 235.891 108.141C236.584 108.712 236.761 109.259 236.423 109.738C236.099 110.196 235.41 110.346 234.714 110.053C234.226 109.848 233.768 109.571 232.99 109.168C233.163 109.72 233.164 110.056 233.332 110.206C234.074 110.872 234.831 111.531 235.647 112.101C236.373 112.61 236.944 113.351 237.998 113.401C238.53 113.425 238.675 114.336 238.331 114.816C237.768 115.6 237.08 115.818 236.211 115.435C235.663 115.194 235.026 115.003 234.638 114.592C234.052 113.972 233.459 113.982 232.701 114.144C232.569 116.304 235.168 116.303 235.62 117.936C237.267 118.07 238.525 119.674 240.392 119.032V120.549C239.567 120.867 238.607 120.478 237.717 121.002C236.911 121.476 236.055 120.702 235.203 120.577C234.827 120.522 234.919 119.488 234.151 119.489C233.67 120.86 233.708 121.279 235.03 121.777C236.593 122.366 237.968 123.576 239.803 123.395C239.892 123.386 240.017 123.741 240.206 124.064C238.953 124.265 237.824 124.039 236.738 124.476C236.31 124.648 235.625 124.149 235.048 123.99C234.585 123.862 234.107 123.785 233.466 123.65C233.466 124.108 233.483 124.414 233.462 124.716C233.426 125.255 233.772 125.655 234.183 125.663C234.866 125.677 235.35 125.86 235.884 126.307C236.308 126.664 237.008 126.678 237.56 126.906C237.78 126.998 237.932 127.257 238.402 127.729C237.261 127.281 236.509 128.297 235.659 127.747C235.426 127.897 235.165 128.066 234.976 128.187C235.046 128.464 235.037 128.631 235.111 128.69C235.594 129.072 236.06 129.495 236.596 129.783C237.704 130.378 238.802 130.996 239.945 131.525C240.473 131.769 240.465 131.786 240.884 132.681C239.468 132.612 238.149 132.933 236.853 132.077C236.345 131.743 235.501 131.919 234.845 131.866C234.345 132.541 234.615 133.179 235.147 133.35C236.71 133.853 237.935 134.978 239.492 135.519C240.185 135.76 240.853 135.596 241.481 135.857C241.536 137.076 241.412 137.267 240.48 137.341C239.989 137.38 239.45 137.193 239.064 137.712C239.029 137.759 238.64 137.562 238.428 137.455C237.573 137.023 236.724 136.581 235.755 136.081C235.362 136.451 234.965 136.826 234.537 137.23C234.674 137.442 234.733 137.635 234.865 137.723C235.519 138.161 236.238 138.514 236.848 139.004C238.189 140.084 239.12 140.596 240.521 140.835C241.434 140.99 241.487 141.016 241.589 142.215C240.717 142.493 239.837 143.028 238.926 142.737C238.328 142.546 237.595 142.6 237.178 142.321C236.48 141.853 235.837 142.115 235.114 141.981C235.137 142.45 234.585 142.995 235.482 143.177C235.646 143.21 235.831 143.355 235.921 143.502C236.989 145.235 238.827 145.731 240.577 146.223C241.567 146.501 242.178 147.059 242.899 147.758C241.978 149.291 240.492 148.215 239.289 148.749C239.159 149.875 240.055 150.649 240.477 151.656H242.142C242.576 152.091 242.941 152.456 243.33 152.845H247.876C248.979 153.389 248.988 154.314 248.987 155.311H249ZM196.13 195.924V196.493C198.669 196.493 199.939 197.255 199.939 198.776C199.939 199.501 199.711 200.528 199.254 201.86L195.431 213.05L189.933 198.378L189.591 197.235C189.591 196.779 190.036 196.543 190.927 196.521C191.818 196.503 192.699 196.493 193.571 196.493V195.924H180.552V196.493H181.861C182.96 196.493 183.622 196.683 183.85 197.062C183.926 197.215 184.135 197.729 184.476 198.602L192.693 220.903L190.874 226.051C190.154 228.149 189.471 229.587 188.827 230.369C188.183 231.152 187.35 231.543 186.328 231.543C186.023 231.543 185.731 231.52 185.447 231.478C185.162 231.436 184.888 231.267 184.623 230.973C186.155 230.783 186.921 229.87 186.921 228.241C186.921 227.331 186.644 226.6 186.088 226.051C185.533 225.5 184.891 225.227 184.164 225.227C183.704 225.227 183.265 225.34 182.844 225.567C181.771 226.136 181.236 226.99 181.236 228.127C181.236 228.583 181.34 229.199 181.548 229.977C181.756 230.752 182.24 231.303 182.999 231.625C183.756 231.947 184.931 232.109 186.523 232.109C187.774 232.109 188.797 231.577 189.593 230.514C190.276 229.602 191.015 227.988 191.811 225.67L199.599 202.816C200.585 200.006 201.476 198.248 202.272 197.545C203.068 196.843 204.186 196.492 205.626 196.492V195.922H196.132L196.13 195.924ZM174.714 197.689C174.024 197.539 173.422 197.802 172.905 198.485C172.388 199.169 172.13 199.851 172.13 200.534C172.13 201.597 172.399 202.394 172.934 202.924C173.471 203.456 174.121 203.72 174.887 203.72C175.384 203.72 175.785 203.644 176.092 203.494C177.354 202.924 177.986 201.88 177.986 200.363C177.986 199.794 177.844 199.15 177.56 198.427C177.276 197.707 176.716 197.11 175.883 196.636C175.049 196.163 174.272 195.925 173.552 195.925C171.656 195.925 170.085 196.875 168.834 198.771C167.924 200.137 167.393 201.598 167.241 203.151V195.925L156.269 196.78V197.292C158.695 197.292 160.249 197.387 160.931 197.579C161.158 197.655 161.404 197.885 161.669 198.267C161.821 198.459 161.898 198.936 161.898 199.7V217.475C161.898 218.392 161.784 218.947 161.556 219.137C160.912 219.367 160.144 219.519 159.254 219.596C158.363 219.672 157.368 219.712 156.269 219.712V220.224H172.869V219.712C170.368 219.712 168.719 219.577 167.923 219.311C167.658 219.198 167.487 219.082 167.411 218.969C167.298 218.739 167.24 218.244 167.24 217.483V206.846C167.24 203.607 167.957 200.956 169.391 198.898C170.487 197.299 171.581 196.497 172.675 196.497C173.77 196.497 174.487 196.895 174.713 197.691L174.714 197.689ZM76.0854 198.944V213.833C76.0854 215.505 76.6163 216.931 77.6782 218.11C78.9288 219.518 80.6716 220.221 82.9086 220.221H83.5896C83.8177 220.221 84.045 220.203 84.2723 220.163C85.9783 219.975 87.4185 219.028 88.5935 217.327C89.5027 216.005 90.0714 214.57 90.2987 213.018V220.221L100.589 219.311V218.799C98.0872 218.799 96.6471 218.665 96.2679 218.399L95.9266 217.83C95.7748 217.6 95.6896 217.239 95.6712 216.746C95.6519 216.25 95.6431 215.757 95.6431 215.261V195.924L84.3285 196.55V197.063C86.9437 197.063 88.4882 197.1 88.9621 197.177C89.436 197.253 89.7774 197.434 89.9854 197.72C90.1933 198.005 90.2978 198.588 90.2978 199.464V209.874C90.2978 212.275 89.7098 214.504 88.5365 216.565C87.3614 218.623 85.9213 219.651 84.2153 219.651C83.3061 219.651 82.6137 219.309 82.1398 218.625C81.6659 217.94 81.4299 216.63 81.4299 214.69V195.924L71.0823 196.55V197.063H72.389C73.8291 197.063 74.7208 197.082 75.0621 197.119C75.4035 197.158 75.6589 197.3 75.8291 197.547C76.0003 197.795 76.0845 198.261 76.0845 198.944H76.0854ZM59.4202 213.533V229.207C59.4202 230.233 59.307 230.842 59.0788 231.032C58.4347 231.258 57.6668 231.411 56.7769 231.487C55.8853 231.564 54.8901 231.601 53.7914 231.601V232.113H70.3925V231.601C67.8906 231.601 66.2425 231.469 65.4456 231.203C65.1806 231.09 65.0095 230.974 64.934 230.86C64.8208 230.634 64.7638 230.138 64.7638 229.379V195.925H64.3083L61.8923 200.324C60.6409 198.557 59.4544 197.383 58.3346 196.8C57.2139 196.217 55.4965 195.925 53.1815 195.925C50.6365 195.925 48.3881 197.148 46.4338 199.595C44.4794 202.042 43.5018 204.992 43.5018 208.444C43.5018 211.137 44.2591 213.697 45.7756 216.126C47.708 219.198 50.3802 220.733 53.7914 220.733C55.3078 220.733 56.6242 219.969 57.7423 218.436C58.8612 216.906 59.4193 215.272 59.4193 213.533H59.4202ZM60.4513 141.677H58.26C58.9937 141.922 59.7414 142.155 60.4513 141.677ZM68.1863 127.683C68.0205 127.701 67.9151 128.259 67.73 128.689C68.3223 128.604 68.7822 128.405 68.9252 128.541C69.4439 129.034 70.0231 128.748 70.5619 128.792C71.5071 128.869 71.6738 127.405 72.7374 127.625C72.7787 127.634 72.9077 127.44 72.9182 127.332C72.9796 126.709 73.5439 126.69 73.8985 126.397C74.5049 125.897 75.3904 125.54 75.6677 124.303C73.1236 125.01 71.0402 126.306 68.7181 126.539C68.5295 127.002 68.9946 127.592 68.1846 127.684L68.1863 127.683ZM128.924 103.813C127.88 103.458 127.142 103.21 126.406 102.957C125.738 102.726 125.6 102.823 125.498 103.604C125.48 103.742 125.498 103.934 125.415 104.007C124.831 104.519 124.094 104.772 123.674 105.579C123.333 106.232 122.473 106.594 121.916 107.156C121.033 108.046 120.092 108.829 118.972 109.416C118.325 109.755 117.768 110.265 117.136 110.723V114.574C117.136 115.091 116.946 115.721 117.173 116.104C117.776 117.125 117.325 117.609 116.474 118.019C116.456 118.739 115.234 118.841 115.585 119.751C115.041 121.204 114.987 122.877 113.635 123.943C113.992 124.3 114.33 124.558 113.669 124.944C113.143 125.252 113.128 125.557 113.237 126.265C113.306 126.714 113.284 127.116 112.878 127.467C112.559 127.742 112.161 128.129 112.13 128.494C112.035 129.629 111.207 130.218 110.712 130.765C110.734 131.255 110.857 131.627 110.731 131.868C110.618 132.086 110.132 132.092 109.983 132.31C109.198 133.454 108.674 134.756 107.845 135.883C107.497 136.356 107.027 137.007 107.12 137.477C107.265 138.21 105.815 138.333 106.63 139.127C105.811 139.679 105.628 140.659 105.092 141.389C104.653 141.986 104.182 142.541 103.953 143.255C103.678 144.109 102.421 144.483 102.787 145.648C101.762 146.203 101.801 147.486 101.035 148.22C100.715 148.526 100.396 148.795 100.429 149.341C100.443 149.581 100.141 150.027 99.9336 150.058C99.3324 150.147 99.2535 150.46 99.2807 150.959C99.2868 151.073 99.0955 151.247 98.9577 151.31C98.1328 151.687 97.5238 152.369 96.6435 152.741C95.9169 153.048 95.5167 154.13 94.9998 154.831C95.2894 155.575 95.8309 155.635 96.44 155.589C99.0235 155.395 101.64 155.969 104.202 155.256C104.844 156.21 105.411 154.742 106.036 155.199C106.191 154.406 107.134 154.393 107.459 153.717C107.914 152.77 108.626 151.987 109.287 151.165C110.194 150.034 111.309 148.91 110.907 147.267C111.325 146.848 111.66 146.442 112.064 146.128C112.486 145.799 112.45 145.387 112.505 144.938C112.551 144.558 113.42 144.884 113.282 144.122C113.187 143.595 113.235 143.059 113.602 142.513C113.884 142.092 114.013 141.284 113.793 140.867C113.332 139.992 114.24 139.951 114.402 139.491C114.443 139.376 114.42 139.238 114.421 139.111C114.422 138.723 114.264 138.123 114.45 137.986C115.059 137.537 114.36 137.256 114.422 136.911C114.471 136.634 114.263 136.263 114.772 136.162C114.937 136.13 115.112 135.893 115.187 135.71C115.459 135.047 115.92 134.354 115.883 133.697C115.832 132.793 116.635 132.609 116.91 131.997C117.526 130.631 118.401 129.384 119.045 128.03C119.303 127.489 120.135 127.247 119.877 126.417C119.835 126.28 120.111 125.923 120.306 125.854C121.348 125.485 121.555 124.457 122.033 123.673C122.442 123.001 122.64 122.201 123.29 121.678C123.114 120.662 124.208 120.435 124.539 119.709C124.694 119.37 124.96 119.089 124.887 118.69C124.805 118.248 125.105 118.017 125.303 117.691C125.861 116.77 126.402 115.823 126.812 114.829C127.313 113.61 127.606 113.362 129.132 113.408C128.981 113.983 128.917 114.596 128.655 115.106C128.383 115.638 128.065 116.113 128.221 116.741C127.554 117.071 127.751 117.847 127.4 118.34C127.081 118.788 126.765 119.239 126.447 119.688C127.002 120.33 126.374 120.709 126.125 121.176C126.071 121.279 126.025 121.437 126.065 121.531C126.3 122.081 126.512 122.65 126.83 123.151C127.105 123.585 127.502 123.882 128.121 123.786C128.37 123.747 128.658 124.017 128.938 124.117C130.075 124.521 131.309 124.794 132.43 124.474C133.319 124.221 134.5 124.484 135.094 123.442C135.443 122.829 136.128 122.088 135.988 121.6C135.827 121.04 135.789 120.505 135.765 119.963C135.72 118.93 135.803 117.891 135.738 116.861C135.676 115.876 135.537 114.89 135.351 113.92C135.204 113.155 135.051 112.351 134.687 111.68C134.276 110.921 134.157 110.175 134.193 109.355C134.198 109.251 134.09 109.143 134.034 109.037C133.727 109.016 133.422 108.995 133.066 108.97C133.156 107.953 132.623 107.413 131.711 106.979C131.371 107.488 130.755 107.989 130.769 108.474C130.801 109.624 130.099 110.405 129.779 111.26H128.737C129.028 110.379 129.379 109.606 129.522 108.795C129.659 108.019 130.051 107.207 129.557 106.4C129.508 106.32 129.542 106.115 129.612 106.05C130.321 105.401 129.255 105.209 129.286 104.742C128.327 104.812 129.058 103.894 128.926 103.814L128.924 103.813ZM166.77 127.569V126.3C165.915 125.83 165.041 125.417 164.243 124.89C163.474 124.382 163.196 123.257 162.089 123.135C161.989 123.124 161.891 122.973 161.816 122.87C161.173 121.974 160.65 120.953 159.864 120.21C159.07 119.458 158.906 118.098 157.595 117.848C157.519 117.833 157.533 117.501 157.447 117.348C157.239 116.978 157.038 116.593 156.762 116.276C155.691 115.043 154.596 113.831 153.503 112.617C153.244 112.329 152.988 112.022 152.677 111.8C151.533 110.989 150.641 111.172 149.646 112.367C149.483 112.561 149.289 112.848 149.088 112.869C148.17 112.962 148.515 113.542 148.67 113.962C148.814 114.351 149.097 114.692 149.339 115.04C150.104 116.147 150.91 117.226 151.641 118.354C152.96 120.388 154.216 122.46 155.532 124.495C156.876 126.574 158.203 128.646 159.97 130.442C160.792 131.277 161.924 132.015 162.197 133.336C162.219 133.441 162.358 133.582 162.464 133.602C163.153 133.735 163.184 134.562 163.684 134.795C164.337 135.099 164.835 135.453 165.017 136.17C166.067 136.365 166.44 137.385 167.182 137.958C167.922 138.529 168.603 139.18 169.362 139.723C170.053 140.217 170.621 140.844 171.397 141.261C172.321 141.756 173.19 141.539 174.478 141.651C173.521 140.929 173.132 140.216 172.299 139.924C171.788 139.745 171.67 139.178 171.911 138.571H173.679C174.028 139.018 174.361 139.633 174.864 140.037C175.361 140.435 176.031 140.621 176.61 140.893C177.407 139.883 177.41 139.774 176.877 139.106C176.533 138.677 176.281 137.884 175.904 137.828C175.043 137.704 175.269 136.847 174.729 136.512C174.171 136.165 173.787 135.518 173.372 134.969C173.007 134.486 172.753 133.914 172.363 133.456C171.916 132.932 171.528 132.403 171.417 131.71C170.438 131.679 170.659 130.731 170.389 130.225C170.022 129.539 169.693 128.918 169.01 128.494C168.79 128.357 168.716 127.985 168.561 127.692C167.979 127.653 167.37 127.612 166.768 127.572L166.77 127.569ZM178.506 128.054C179.548 127.946 180.67 128.283 181.635 127.272C181.461 126.95 181.349 126.387 181.057 126.268C180.064 125.865 179.01 125.368 177.976 125.36C175.152 125.338 172.287 124.948 169.322 125.923C170.703 126.074 171.67 126.838 172.711 127.339C173.709 127.818 174.679 128.497 175.707 128.983C176.668 129.436 177.326 130.036 177.361 130.96C177.754 130.942 178.149 130.801 178.364 130.939C178.787 131.212 179.123 131.629 179.47 132.009C179.829 132.401 180.22 132.359 180.659 132.184C181.507 131.847 182.04 131.13 182.688 130.548C183.141 130.142 183.227 129.727 182.854 129.134C182.043 129.28 181.206 129.446 180.365 129.569C180.158 129.599 178.888 128.507 178.507 128.053L178.506 128.054ZM180.443 133.49C179.993 133.227 179.399 133.084 178.877 133.104C178.156 133.132 178.553 131.904 177.724 132.196C176.648 131.517 175.471 131.018 174.487 130.165C173.9 129.657 173.118 129.331 172.266 129.693C173.522 132.367 175.252 134.661 177.67 136.712C178.825 136.402 180.12 136.083 181.387 135.681C181.57 135.623 181.625 135.161 181.814 134.705C181.4 134.325 180.981 133.805 180.444 133.49L180.443 133.49ZM175.46 145.192C176.038 145.475 176.384 145.645 176.916 145.905C176.756 144.683 176.154 145.212 175.46 145.192ZM167.549 147.999C167.814 147.872 168.078 147.746 168.383 147.601C168.3 147.406 168.262 147.217 168.155 147.081C167.721 146.53 166.697 146.573 166.658 145.596C166.656 145.556 166.308 145.559 166.146 145.487C165.954 145.401 165.788 145.257 165.611 145.14C165.855 144.92 166.098 144.7 166.348 144.474C166.072 144.202 165.799 143.776 165.415 143.607C165.153 143.491 164.709 143.676 164.391 143.825C163.977 144.018 164.336 144.248 164.376 144.502C164.47 145.092 164.695 145.766 164.204 146.315C163.862 146.697 164.339 147.391 163.683 147.639C164.305 148.037 163.787 148.879 164.125 149.172C164.846 149.796 164.048 150.166 164.053 150.676C164.163 150.801 164.258 150.994 164.412 151.071C164.915 151.319 165.411 151.515 165.248 152.261C165.211 152.43 165.483 152.664 165.612 152.869C165.484 152.869 165.355 152.852 165.232 152.873C165.118 152.893 165.012 152.953 164.903 152.995C165.012 153.082 165.11 153.199 165.234 153.247C165.345 153.29 165.484 153.256 165.612 153.256C165.741 153.65 165.869 154.043 166.005 154.459C166.739 153.947 167.334 153.532 168.021 153.053C167.564 152.762 167.17 152.511 166.646 152.178C166.812 151.822 167.185 151.407 167.122 151.077C166.975 150.308 168.15 150.77 167.909 149.976C167.71 149.745 167.448 149.442 167.169 149.12C167.747 148.873 167.874 148.499 167.549 147.998V147.999ZM153.836 141.15C154.361 140.567 153.341 139.82 153.977 139.21C153.562 138.665 153.232 138.002 152.367 138.119C151.57 138.227 150.917 137.91 150.346 137.393C150.025 137.101 149.73 136.781 149.428 136.479C148.362 137.193 147.294 137.722 146.47 138.506C145.334 139.587 143.991 140.333 142.735 141.218C141.843 141.846 140.902 142.401 139.99 143C139.132 143.564 138.555 144.49 137.474 144.808C137.186 144.894 137.096 145.638 136.91 146.078C136.692 146.596 136.092 146.055 135.669 146.633C135.208 147.26 134.878 148.462 133.6 148.258C133.453 148.235 133.109 148.69 133.061 148.959C132.973 149.46 133.067 149.991 133.026 150.504C132.992 150.926 132.766 151.354 132.816 151.755C132.869 152.174 133.184 152.554 133.311 152.974C133.354 153.121 133.178 153.334 133.096 153.532C133.453 153.619 133.807 153.706 134.546 153.887C133.761 154.011 133.406 154.067 133.091 154.117V155.104H135.827C135.703 154.965 135.647 154.926 135.623 154.872C134.912 153.255 135.555 151.714 135.964 150.186C136.035 149.919 136.662 149.801 137.232 149.514C137.275 150.494 137.309 151.237 137.334 151.818C137.864 152.483 138.3 153.03 138.702 153.534C138.852 153.022 139.014 152.504 139.153 151.981C139.196 151.815 139.25 151.523 139.176 151.474C138.3 150.889 139.501 149.998 138.853 149.399C139.013 149.262 139.153 149.088 139.335 148.995C140.116 148.598 139.414 148.315 139.271 147.99C139.827 147.409 140.555 146.949 140.519 145.98C140.511 145.764 140.709 145.54 140.868 145.201C141.34 145.927 141.594 146.317 141.918 146.815C143.493 145.694 142.223 143.971 142.95 142.704H143.83C143.892 142.294 143.943 141.962 143.993 141.629C144.284 142.722 144.319 143.802 144.271 144.879C144.236 145.678 144.36 146.389 145.048 147.099C145.33 146.423 145.788 145.816 145.787 145.211C145.785 144.286 146.337 144.053 146.994 143.772C146.735 143.495 146.485 143.228 146.204 142.927C146.453 142.839 146.678 142.761 146.956 142.663C146.989 142.202 147.024 141.719 147.06 141.235H148.071C148.222 141.761 148.384 142.33 148.551 142.897C148.618 143.127 148.633 143.415 148.781 143.57C149.197 144.005 149.466 144.252 149.002 144.976C148.616 145.578 149.637 145.77 150.076 146.103C149.813 146.367 149.493 146.558 149.383 146.834C149.282 147.088 149.304 147.625 149.448 147.701C149.947 147.961 150.3 148.187 150.574 148.774C150.751 149.151 151.632 149.198 152.171 149.384C152.466 149.031 152.745 148.697 153.191 148.165C153.06 147.507 153.456 146.511 152.779 145.352C153.071 145.226 153.433 145.069 153.552 145.017C153.64 144.308 152.752 144.087 153.372 143.582C153.819 143.218 153.216 143.122 153.189 142.866C153.121 142.231 153.76 142.52 153.936 142.231C153.951 142.207 153.913 142.128 153.877 142.1C153.506 141.796 153.498 141.53 153.839 141.152L153.836 141.15ZM150.487 197.69C149.797 197.539 149.195 197.803 148.678 198.486C148.161 199.17 147.903 199.852 147.903 200.535C147.903 201.598 148.171 202.395 148.707 202.924C149.244 203.457 149.893 203.721 150.659 203.721C151.157 203.721 151.558 203.645 151.864 203.494C153.127 202.925 153.759 201.881 153.759 200.364C153.759 199.795 153.617 199.151 153.332 198.428C153.049 197.708 152.489 197.111 151.655 196.637C150.822 196.164 150.044 195.926 149.325 195.926C147.429 195.926 145.857 196.875 144.607 198.772C143.697 200.137 143.166 201.599 143.014 203.152V195.926L132.042 196.781V197.293C134.467 197.293 136.021 197.387 136.704 197.58C136.931 197.656 137.177 197.885 137.442 198.268C137.594 198.46 137.67 198.937 137.67 199.701V217.476C137.67 218.393 137.557 218.948 137.329 219.138C136.685 219.367 135.917 219.52 135.027 219.597C134.135 219.673 133.14 219.713 132.042 219.713V220.225H148.642V219.713C146.141 219.713 144.492 219.578 143.696 219.312C143.431 219.199 143.26 219.083 143.184 218.97C143.071 218.74 143.013 218.245 143.013 217.483V206.847C143.013 203.608 143.73 200.957 145.164 198.899C146.259 197.3 147.354 196.498 148.448 196.498C149.542 196.498 150.259 196.896 150.486 197.692L150.487 197.69ZM104.228 174.064V184.739C104.228 186.09 104.578 187.13 105.279 187.857C105.979 188.585 107.081 188.947 108.583 188.947C110.161 188.947 111.225 188.495 111.775 187.593C112.175 186.943 112.376 185.74 112.376 183.986C112.35 183.46 112.338 182.909 112.338 182.333V180.604H111.887V182.399C111.887 184.494 111.777 185.915 111.554 186.662C111.234 187.76 110.572 188.308 109.562 188.308C108.702 188.308 108.149 187.834 107.903 186.884C107.805 186.486 107.755 185.611 107.755 184.26V174.064H112.074V172.974H107.755V165.044H107.117C107.117 166.932 106.699 168.63 105.862 170.14C104.822 172.028 103.275 173.223 101.221 173.726V174.064H104.225L104.228 174.064ZM76.4329 159.486C75.3219 159.496 74.4891 160.108 74.0064 161.187C75.5176 161.468 88.9191 161.508 91.1069 161.255V159.468C86.1855 159.468 81.3087 159.444 76.4329 159.486ZM79.916 154.588C80.64 154.954 81.3307 155.578 82.1767 155.049V153.879C81.4184 154.982 80.7339 154.086 79.9941 153.994C79.9564 154.259 79.866 154.561 79.916 154.587V154.588ZM92.6962 154.632C93.3632 153.802 94.0398 152.979 94.7585 152.195C94.992 151.94 95.4615 151.886 95.658 151.618C95.8941 151.296 95.945 150.84 96.0951 150.45C96.2662 150.004 96.3601 149.473 96.6672 149.151C96.9762 148.827 97.486 148.783 97.7721 148.274C98.4584 147.058 99.2824 145.92 100.06 144.739C99.6036 143.787 99.7291 143.489 100.581 142.766C101.425 142.05 102.397 141.401 102.543 140.13C102.574 139.851 102.81 139.361 102.937 139.365C103.949 139.404 103.507 138.519 103.688 138.12C103.93 137.585 104.507 137.454 104.7 137.023C104.942 136.481 104.866 135.784 105.147 135.275C105.447 134.733 106.053 134.37 106.435 133.86C106.716 133.487 106.773 132.937 107.074 132.588C107.453 132.147 107.344 131.655 107.469 131.188C107.606 130.681 108.036 130.256 108.198 129.751C108.401 129.114 109.396 128.834 109.232 128.324C109.029 127.69 109.338 127.513 109.626 127.209C109.798 127.026 110.006 126.876 110.163 126.74C109.977 126.479 109.838 126.283 109.626 125.986C110.01 125.774 110.338 125.648 110.592 125.434C110.76 125.29 110.961 124.879 110.91 124.829C110.354 124.279 110.846 123.769 111.09 123.462C111.744 122.637 112.752 122.046 112.565 120.766C113.567 120.048 113.54 118.819 113.884 117.826C114.508 116.022 114.825 114.111 115.274 112.23C114.291 111.979 113.662 112.15 113.093 112.833C112.435 113.624 111.646 114.307 110.919 115.042C110.607 115.358 110.271 115.522 109.81 115.654C108.729 115.964 107.691 116.459 106.682 116.974C105.776 117.436 104.932 118.025 103.949 118.627C103.969 118.902 103.85 119.446 104.068 119.739C104.357 120.128 104.044 120.212 103.989 120.459C103.842 121.106 103.172 121.701 103.904 122.496C104.169 122.785 104.04 123.553 103.524 124.034C103.036 124.488 102.845 125.128 102.754 125.844C102.619 126.914 102.351 127.989 101.976 129.002C101.583 130.062 100.995 131.05 100.494 132.071C99.8353 133.416 98.54 134.432 98.4294 136.066C98.4233 136.163 98.2706 136.307 98.1644 136.331C97.4369 136.493 97.5404 137.381 97.192 137.601C96.5567 138.002 96.3539 138.499 96.1425 139.119C96.0091 139.509 95.7853 139.971 95.4606 140.174C94.2662 140.927 94.3136 142.547 93.1622 143.327C92.9095 143.498 92.8708 143.968 92.698 144.281C92.4066 144.808 92.0731 145.313 91.78 145.84C90.8156 147.572 89.7221 149.252 88.9718 151.073C88.6743 151.795 88.196 152.292 87.7862 152.843C87.235 153.584 87.0832 153.766 87.6545 154.211C87.9871 154.471 88.3662 154.671 88.7225 154.902C89.2877 155.268 89.8722 155.787 90.5602 155.556C91.2859 155.313 92.1416 155.319 92.6953 154.631L92.6962 154.632ZM93.7677 160.216C93.9204 160.708 94.0986 161.279 94.2592 161.797C96.1267 161.797 97.8055 161.772 99.4825 161.803C101.7 161.844 103.868 161.154 106.101 161.392C106.654 161.451 107.037 160.986 107.052 160.471C107.067 159.938 106.718 159.524 106.163 159.475C105.778 159.441 105.389 159.469 105.002 159.469C102.097 159.469 99.192 159.467 96.2873 159.469C95.4281 159.47 94.5268 159.327 93.7668 160.216H93.7677ZM110.485 161.027H108.694C108.586 160.322 108.308 159.976 107.86 159.989V161.449C108.845 161.322 109.698 161.555 110.486 161.027H110.485ZM104.687 214.923C104.687 217.012 105.503 218.57 107.132 219.595C108.307 220.355 109.691 220.734 111.282 220.734C112.874 220.734 114.144 220.546 115.091 220.171C116.684 219.532 117.877 218.292 118.673 216.448C118.978 218.064 119.607 219.212 120.56 219.888C121.36 220.451 122.58 220.733 124.219 220.733C126.314 220.733 127.705 220.259 128.391 219.311C128.924 218.551 129.191 217.072 129.191 214.873C129.153 214.153 129.134 213.394 129.134 212.597V210.092H128.451V210.604C128.451 211.169 128.461 211.716 128.48 212.243C128.499 212.771 128.508 213.299 128.508 213.827C128.508 215.751 128.338 217.221 127.997 218.24C127.655 219.259 126.992 219.765 126.006 219.765C124.908 219.765 124.225 219.124 123.96 217.837C123.847 217.306 123.79 215.906 123.79 213.635V201.09C123.79 199.653 123.145 198.46 121.856 197.516C120.415 196.456 118.293 195.925 115.488 195.925C113.934 195.925 112.399 196.173 110.883 196.666C108.76 197.347 107.434 198.428 106.903 199.907C106.677 200.591 106.562 201.199 106.562 201.73C106.562 202.83 107.117 203.739 108.228 204.46C108.609 204.726 109.05 204.858 109.548 204.858C110.313 204.858 110.982 204.593 111.556 204.061C112.13 203.53 112.418 202.848 112.418 202.014C112.418 201.294 112.192 200.649 111.735 200.079C111.281 199.509 110.693 199.224 109.974 199.224C109.746 199.224 109.556 199.245 109.405 199.282C109.708 198.43 110.351 197.754 111.334 197.25C112.317 196.747 113.46 196.495 114.764 196.495C116.364 196.495 117.405 196.761 117.889 197.296C118.372 197.828 118.615 198.859 118.615 200.383V203.698C118.615 205.143 118.218 206.074 117.425 206.49C116.633 206.909 115.105 207.212 112.839 207.403C110.574 207.593 108.65 208.371 107.064 209.739C105.479 211.145 104.686 212.872 104.686 214.923H104.687ZM133.442 188.609V188.271C132.917 188.271 132.391 188.247 131.865 188.197C131.339 188.147 130.976 188.083 130.776 188.007C130.576 187.932 130.451 187.857 130.401 187.782C130.326 187.631 130.288 187.305 130.288 186.802V176.818C130.288 175.688 129.937 174.734 129.237 173.955C128.36 173.001 127.046 172.521 125.294 172.521C125.194 172.521 125.024 172.535 124.787 172.56C124.549 172.586 124.329 172.599 124.129 172.599C123.128 172.698 122.264 173.325 121.539 174.476C120.963 175.405 120.6 176.37 120.45 177.371V164.067L113.239 164.706V165.044C114.792 165.044 115.793 165.106 116.243 165.232C116.394 165.284 116.557 165.434 116.731 165.686C116.831 165.812 116.888 165.987 116.901 166.215C116.913 166.442 116.919 166.718 116.919 167.045V186.798C116.919 187.402 116.845 187.767 116.694 187.893C116.268 188.044 115.761 188.145 115.173 188.196C114.584 188.246 113.927 188.27 113.201 188.27V188.609H123.228V188.27C122.852 188.27 122.421 188.246 121.932 188.196C121.444 188.146 121.106 188.083 120.918 188.006C120.73 187.931 120.611 187.855 120.561 187.779C120.486 187.628 120.448 187.301 120.448 186.798V179.242C120.673 177.581 121.099 176.172 121.726 175.012C122.477 173.628 123.377 172.935 124.429 172.935C125.405 172.935 126.068 173.351 126.42 174.181C126.644 174.71 126.758 175.515 126.758 176.599V186.797C126.758 187.401 126.683 187.766 126.532 187.892C126.131 188.043 125.669 188.144 125.142 188.195C124.616 188.245 124.153 188.27 123.753 188.27V188.608H133.441L133.442 188.609ZM148.135 130.111C148.411 130.011 148.636 129.931 148.835 129.859V128.028C148.775 128.025 148.716 128.022 148.656 128.018C148.579 128.408 148.501 128.797 148.355 129.536C147.618 128.798 147.08 128.259 146.48 127.658C146.25 127.857 145.965 128.284 145.59 128.393C143.469 129.007 142.658 131.256 140.79 132.164C140.35 133.147 139.555 133.849 138.853 134.624C138.085 135.473 137.332 136.335 136.458 137.322V138.206C135.345 139.099 134.349 139.831 133.433 140.652C132.52 141.47 131.672 142.363 130.824 143.25C129.992 144.122 129.224 145.057 128.372 145.91C127.543 146.741 126.622 147.479 125.781 148.3C124.347 149.698 122.984 151.17 121.514 152.528C120.723 153.26 119.871 153.903 119.559 155.099C120.194 155.94 121.118 155.617 121.876 155.538C122.617 155.461 123.422 155.311 124.039 154.705C127.376 151.426 130.522 147.947 134.132 144.949C134.489 144.652 134.832 144.317 135.038 143.782C135.221 143.306 135.728 142.861 136.488 142.718C137.512 142.526 138.115 141.474 138.979 140.895C139.943 140.246 140.82 139.423 141.862 138.959C142.322 138.754 142.555 138.466 142.896 138.235C143.788 137.63 144.548 136.98 145.035 136.016C145.085 135.917 145.224 135.802 145.324 135.8C146.835 135.759 147.619 134.329 149.121 134.047C148.883 133.551 148.732 133.228 148.574 132.908C148.442 132.639 148.145 132.171 148.187 132.139C149.082 131.453 148.169 130.784 148.135 130.109V130.111ZM126.636 155.605C127.14 155.554 127.392 155.598 127.458 155.506C127.571 155.351 127.569 155.111 127.705 154.502C127.209 155.015 127.017 155.211 126.636 155.605ZM134.268 181.129C134.268 183.561 135.081 185.527 136.709 187.03C138.085 188.307 139.613 188.947 141.29 188.947C143.293 188.947 144.895 188.346 146.098 187.144C147.299 185.94 147.9 184.399 147.9 182.52H147.6C147.6 184.461 146.961 185.999 145.684 187.134C144.633 188.067 143.418 188.533 142.042 188.533C140.74 188.533 139.77 187.929 139.132 186.719C138.493 185.511 138.174 183.56 138.174 180.865H147.825C147.825 177.684 147.036 175.392 145.459 173.988C144.382 173.035 143.03 172.56 141.404 172.56C139.651 172.56 138.073 173.274 136.672 174.702C135.068 176.355 134.268 178.498 134.268 181.129ZM134.593 160.637C134.643 161.266 135.141 160.934 135.447 161.015C135.493 161.028 135.555 160.983 135.805 160.898C135.703 160.786 135.666 160.738 135.621 160.698C135.361 160.469 135.168 160.054 134.716 160.321C134.637 160.366 134.585 160.531 134.593 160.636V160.637ZM137.317 161.408C138.44 161.408 139.565 161.446 140.686 161.391C141.212 161.366 141.572 161.025 141.576 160.389C140.757 159.91 140.249 160.718 139.593 160.846C138.841 160.992 138.072 161.05 137.311 161.146C137.312 161.233 137.315 161.321 137.317 161.408ZM153.329 151.644C152.766 151.738 152.422 151.788 152.082 151.855C151.726 151.926 151.372 152.077 151.018 152.073C150.722 152.07 150.426 151.895 150.097 151.784V152.675C151.301 152.877 152.378 152.534 153.329 151.644ZM156.69 136.567C156.711 136.662 157.368 137.433 157.471 137.55C157.863 138.001 158.271 138.348 158.922 138.026C159.357 137.811 159.81 137.63 160.519 137.317C159.828 136.972 159.423 136.769 159.017 136.567C158.862 136.438 158.692 136.183 158.557 136.2C157.929 136.281 157.311 136.437 156.625 136.528V133.926C156.441 133.893 156.275 133.915 156.208 133.843C154.928 132.467 153.266 131.57 151.864 130.351C151.418 129.963 151.042 129.828 150.452 130.141C150.664 130.893 150.114 131.76 150.841 132.46C150.189 133.233 150.6 134.106 150.453 135.018C151.46 135.023 152.415 134.81 152.971 135.756C154.258 135.807 155.285 137.055 156.69 136.567ZM160.042 151.797C160.502 152.761 161.399 152.479 162.054 153.062V151.797H160.042ZM160.894 150.207C160.894 149.891 160.893 149.606 160.441 148.562C160.204 148.491 159.963 148.417 159.725 148.333C159.28 148.176 158.851 147.972 158.401 147.835C158.25 147.789 158.057 147.888 157.897 147.919V148.697C158.944 149.224 159.873 149.692 160.894 150.207ZM162.119 149.615C162.119 148.87 162.212 148.354 162.091 147.895C161.983 147.486 161.64 147.138 161.391 146.749C161.691 146.647 161.906 146.575 162.1 146.508C161.765 145.564 161.206 146.348 160.839 146.294C160.461 145.555 160.1 144.85 159.7 144.068C159.784 144.961 160.073 146.226 160.702 148.127C160.922 148.446 161.143 148.765 161.354 149.09C161.461 149.255 161.699 149.335 162.119 149.615ZM162.895 143.228C162.654 142.915 162.415 142.6 162.141 142.242C161.715 142.614 161.413 142.878 161.127 143.127C160.906 142.555 160.713 142.057 160.46 141.402C160.088 142.002 159.669 142.404 159.674 143.56C160.666 143.914 161.046 144.576 161.05 145.426H162.126V143.758C162.437 143.544 162.666 143.386 162.894 143.229L162.895 143.228ZM157.85 152.953C159.388 153.528 160.354 154.463 161.779 153.873C161.692 153.658 161.612 153.285 161.529 153.284C160.911 153.279 160.358 153.168 159.772 152.908C159.359 152.725 158.781 152.913 157.85 152.953ZM160.637 161.378H162.958V160.306C163.497 160.25 163.975 160.201 164.452 160.152C163.909 159.787 163.141 159.318 162.825 159.529C162.109 160.007 161.368 159.7 160.637 159.931V161.378ZM168.606 144.009C169.239 144.461 169.739 145.029 170.274 145.576C170.847 146.162 171.809 146.377 171.929 147.451C172.556 147.419 173.16 147.388 173.816 147.354C173.266 146.18 174.067 145.119 173.687 144.074C173.476 143.987 173.254 143.899 173.035 143.805C171.412 143.106 170.123 142.867 169.167 143.088C169.294 142.772 169.413 142.477 169.576 142.072H166.839C166.782 142.183 166.725 142.295 166.669 142.405C167.311 142.944 167.925 143.523 168.606 144.008V144.009ZM147.455 113.736C146.816 112.796 146.267 112.91 145.063 112.931C146.106 113.454 146.044 114.224 146.379 114.758C147.751 116.947 149.024 119.2 150.055 121.554C150.822 123.304 151.875 124.9 152.544 126.711C152.973 127.869 154.228 128.596 154.832 129.781C155.133 130.371 155.951 130.707 156.555 131.128C156.931 131.389 157.345 131.596 157.971 131.961C157.793 131.396 157.776 130.928 157.536 130.66C156.875 129.922 156.352 129.12 155.892 128.242C155.444 127.385 154.924 126.522 154.255 125.84C153.522 125.095 153.381 124.124 152.916 123.287C151.926 121.505 151.052 119.637 149.878 117.984C148.924 116.641 148.379 115.098 147.454 113.737L147.455 113.736ZM143.489 114.493C143.557 115.732 144.473 116.93 143.496 117.957C144.188 118.889 144.845 119.714 145.437 120.583C146.3 121.854 146.955 123.281 148.141 124.307C148.843 124.914 149.619 125.436 150.492 126.095C150.407 125.658 150.415 125.23 150.242 124.895C149.498 123.454 148.708 122.036 147.921 120.616C147.716 120.245 147.524 119.84 147.226 119.553C146.784 119.126 146.584 118.691 146.573 118.056C146.565 117.616 146.24 117.183 146.034 116.693H145.226C145.312 116.199 145.39 115.757 145.438 115.48C144.734 115.123 144.199 114.852 143.489 114.492V114.493ZM143.21 121.327C141.858 119.491 140.957 118.83 138.923 118.202C138.115 117.953 137.846 118.106 137.685 118.87C137.573 119.401 137.534 119.988 137.268 120.433C137.063 120.774 136.901 121.051 136.907 121.455C136.924 122.857 136.914 124.258 136.914 125.634C138.479 125.871 139.942 125.427 141.35 126.054C141.835 126.269 142.506 126.152 143.074 126.071C143.725 125.978 144.357 125.755 144.991 125.59C145.051 124.103 145.082 124.084 144.429 122.956C144.091 122.373 143.613 121.873 143.211 121.327H143.21ZM135.543 127.268C134.061 127.195 132.681 126.653 131.238 126.416C130.888 126.358 130.558 126.185 130.212 126.091C129.604 125.926 128.989 125.781 128.318 125.613C128.535 125.342 128.638 125.213 128.877 124.916H126.528C126.446 124.604 126.4 124.43 126.349 124.23C125.748 124.592 125.154 124.955 124.555 125.31C124.401 125.401 124.179 125.427 124.081 125.555C123.098 126.822 121.759 127.838 121.117 129.333C120.809 130.051 119.942 130.508 120.123 131.442C118.967 131.471 119.744 132.935 118.795 133.234C118.52 133.32 118.522 134.118 118.284 134.522C117.801 135.34 118.153 136.305 117.851 137.062C117.507 137.923 117.213 138.721 117.081 139.665C116.886 141.048 115.912 142.334 116.67 143.831C116.314 144.184 115.949 144.548 115.583 144.914C116.255 145.114 115.497 145.675 115.878 146.038C116.148 146.295 116.236 146.793 116.299 147.201C116.368 147.649 116.314 148.116 116.314 148.753C115.29 147.662 114.571 149.13 113.822 148.557C112.719 151.084 110.949 152.999 109.43 154.983C109.812 155.686 110.436 155.758 110.838 155.554C111.81 155.061 112.805 155.247 113.71 155.203C114.261 154.786 114.715 154.33 115.259 154.05C116.981 153.164 118.21 151.995 117.884 149.725C119.89 150.041 121.48 149.515 122.646 147.948C122.705 147.869 122.894 147.895 122.974 147.82C123.619 147.22 124.371 146.69 124.859 145.978C125.435 145.138 126.024 144.394 126.952 143.933C127.346 143.737 127.547 143.407 127.646 142.9C127.762 142.302 128.187 141.764 128.558 141.046C128.726 141.49 128.81 141.712 128.932 142.036C129.487 141.48 130.013 140.952 130.539 140.425C131.087 139.876 131.807 139.414 132.137 138.756C132.501 138.03 133.405 137.997 133.648 137.287C133.741 137.012 133.617 136.662 133.584 136.252C134.356 136.5 134.515 134.967 135.562 135.398C135.624 135.23 135.721 135.066 135.741 134.893C135.776 134.588 135.695 134.321 136.173 134.215C136.819 134.072 136.838 133.491 136.972 132.901C137.08 132.421 138.229 132.942 138.339 132.196C138.461 131.363 139.489 131.347 139.566 130.807C139.662 130.141 139.992 129.769 140.407 129.399C140.861 128.995 140.945 128.577 140.626 128.03C140.316 128.03 139.944 128.137 139.691 128.009C139.053 127.686 138.397 127.664 137.711 127.622C136.984 127.578 136.271 127.306 135.544 127.269L135.543 127.268ZM122.129 102.008C121.598 101.255 122.013 100.398 121.619 99.7663C120.926 99.1436 120.263 100.762 119.572 99.7075C119.549 99.6723 119.239 99.7918 119.087 99.8814C118.412 100.283 117.717 100.66 117.085 101.122C116.575 101.496 116.177 102.022 115.669 102.4C115.189 102.755 114.572 102.936 114.127 103.323C113.677 103.713 113.44 104.549 112.976 104.668C112.4 104.816 111.787 104.897 111.22 105.133C111.11 105.179 111.009 105.258 110.918 105.337C109.874 106.248 108.798 107.128 107.81 108.097C107.496 108.406 107.416 108.954 107.206 109.448C106.233 109.052 105.416 109.654 105.191 110.381C104.903 111.311 104.306 111.289 103.662 111.43C103.589 112.471 103.267 113.388 102.696 114.179C102.506 113.851 102.345 113.576 102.123 113.194C101.934 113.585 101.69 113.899 101.648 114.238C101.612 114.533 101.807 114.855 101.871 115.067C101.189 115.256 100.549 115.432 99.909 115.61C99.7941 116.484 98.8972 116.264 98.4408 116.66C98.3434 116.744 98.2311 116.827 98.1697 116.936C97.5913 117.959 97.5861 117.945 96.8761 118.334C96.6207 118.475 96.4145 118.706 96.2802 118.817C96.4575 119.37 96.6023 119.823 96.7576 120.309C97.5466 120.101 97.9661 120.458 98.1934 121.254C97.8765 121.446 97.5887 121.727 97.2561 121.801C96.418 121.986 95.5483 122.032 94.7146 122.231C94.3996 122.307 93.9125 122.642 93.9073 122.87C93.8836 123.863 92.9358 124.415 92.8357 125.354C92.8085 125.611 92.5874 126.027 92.4101 126.053C91.9661 126.116 91.8651 126.322 91.9327 126.683C92.0398 127.258 91.7993 127.645 91.3781 128.012C90.669 128.63 90.0617 129.321 89.9722 130.338C89.9538 130.552 89.7633 130.875 89.5852 130.93C88.1038 131.389 87.9415 133.037 86.7489 133.763C86.9761 134.088 87.1087 134.277 87.2903 134.538C86.8972 134.599 86.5418 134.653 86.1653 134.711C86.0407 135.178 85.6791 135.839 85.8467 136.026C86.4092 136.654 85.2113 137.007 85.7238 137.522C85.4334 137.592 85.0885 137.588 84.8656 137.75C84.4663 138.042 83.8353 138.441 83.8441 138.782C83.8669 139.676 83.1613 139.955 82.7883 140.508C82.7164 140.614 82.8752 140.876 82.9279 141.067C81.3386 141.944 80.1152 143.364 78.7901 144.454C78.6286 146.12 78.8173 147.551 79.4843 148.957C79.8423 149.71 80.0933 150.598 79.8994 151.492C79.8537 151.703 79.7414 152.048 79.6141 152.07C78.6778 152.234 79.2736 152.803 79.1929 153.26C79.5281 153.26 79.7879 153.22 80.0301 153.268C80.5628 153.371 81.1367 153.715 81.6019 153.597C82.1547 153.456 82.6084 152.931 83.1095 152.578C83.7081 152.156 84.2688 151.491 84.9226 151.377C85.9099 151.204 86.2715 150.631 86.6032 149.861C87.5712 147.615 89.2394 145.8 90.4206 143.688C91.0323 142.595 92.2214 141.74 91.9169 140.319C92.4645 139.553 93.3623 139.158 93.5817 138.215C94.5611 137.822 94.3267 136.435 95.3386 136.068C95.4457 135.26 96.3346 134.889 96.5145 134.271C96.7515 133.458 97.4132 132.862 97.558 132.192C97.7686 131.22 98.4952 130.756 98.9595 130.04V128.176C99.4667 127.668 99.9248 127.212 100.379 126.752C100.418 126.711 100.434 126.647 100.47 126.574C100.492 126.112 99.7002 125.765 100.374 125.103C100.657 124.826 100.484 124.046 101.11 123.983C101.44 121.876 101.767 119.801 102.094 117.721C102.441 117.31 102.945 116.927 103.132 116.425C103.289 116.007 103.526 116.042 103.798 115.956C104.196 115.83 104.587 115.677 104.986 115.551C105.235 115.471 104.923 114.333 105.709 115.162C105.746 115.2 106.323 114.635 106.699 114.458C109.681 113.049 111.718 110.427 114.32 108.535C114.505 107.609 115.001 107.71 115.651 108.088C115.902 108.233 116.246 108.219 116.473 108.264C116.812 107.827 117.116 107.126 117.393 107.136C118.196 107.166 118.501 106.603 118.978 106.212C119.598 105.704 120.247 105.229 120.888 104.747C121.526 104.268 122.482 102.508 122.133 102.013L122.129 102.008ZM116.29 98.7088C115.906 98.332 115.595 97.9148 114.974 97.6996C113.85 97.3097 112.747 97.3957 111.626 97.3694C110.487 97.3422 109.458 97.596 108.544 98.3663C107.85 98.9504 107.01 99.3535 106.281 99.9007C105.482 100.501 104.538 101.047 104.029 101.851C103.617 102.503 102.598 102.603 102.62 103.548C100.973 103.97 100.098 105.493 98.7146 106.291C98.4988 106.415 98.2732 106.523 97.7993 106.772C99.4272 107.502 100.696 106.41 101.911 107.07C102.565 106.558 103.374 106.839 104.065 106.642C104.741 106.449 105.276 105.883 106.08 105.863C106.361 105.856 106.624 105.352 106.906 105.085C107.04 104.957 107.183 104.783 107.346 104.752C109.675 104.299 111.357 102.592 113.419 101.625C113.802 101.446 114.108 100.912 114.462 100.9C115.412 100.868 115.684 100.039 116.242 99.5705C116.401 99.4361 116.432 98.8502 116.289 98.7097L116.29 98.7088ZM95.4948 109.512C95.1771 109.831 94.812 110.197 94.4198 110.591C92.8638 110.266 91.8186 111.222 90.8893 112.234C90.404 112.763 89.9704 113.373 89.508 113.939C88.956 114.614 88.1521 115.085 87.8713 115.98C87.0323 115.856 87.2728 116.779 86.8147 117.08C86.2855 117.428 85.8572 117.946 85.4351 118.433C85.0753 118.849 84.7348 119.298 84.4803 119.782C84.131 120.446 83.5062 120.803 82.9735 121.248C81.8335 122.202 80.6058 123.051 79.4772 124.017C78.6453 124.729 77.8353 125.497 77.1578 126.353C76.461 127.234 75.4764 127.597 74.5733 128.109C73.2921 128.836 72.5725 130.119 71.9459 131.274C71.3395 132.39 70.4101 132.317 69.5799 132.661C69.2131 132.813 68.7304 132.687 68.4724 132.687C67.6422 133.972 69.113 134.444 69.0981 135.427C69.092 135.814 69.6721 136.208 69.9634 136.571H72.3847C72.5558 136.804 72.9252 137.082 72.8928 137.3C72.7058 138.561 73.5975 139.008 74.4277 139.522C73.5027 139.746 73.03 140.323 73.0095 141.251C74.1732 140.984 74.9226 141.465 75.1771 142.633C74.4552 143.015 74.1708 143.632 74.3241 144.483C74.7094 144.169 75.0025 143.832 75.3719 143.647C76.375 143.144 77.5229 142.651 77.9985 141.683C78.54 140.582 79.6677 140.171 80.253 139.168C81.0209 137.852 81.981 136.651 82.8208 135.375C83.0393 135.044 83.0148 134.512 83.2798 134.258C84.3215 133.262 84.762 132.594 84.9481 131.442C84.9867 131.206 85.0692 130.777 85.1394 130.776C86.2399 130.754 86.0424 129.507 86.755 129.114C88.0828 128.38 88.361 126.72 89.5817 125.848C90.1574 125.437 89.6326 124.233 90.6874 124.028C90.9709 123.305 91.2508 122.581 91.5395 121.86C91.6062 121.694 91.6598 121.459 91.7905 121.391C93.1692 120.676 93.0481 118.652 94.6392 118.134C94.8875 117.026 95.8476 116.629 96.6725 116.101C97.458 115.598 97.6185 114.364 98.8156 114.305C98.9867 114.296 99.1148 113.809 99.2982 113.571C99.486 113.328 99.7449 112.905 99.9248 112.928C100.908 113.055 101.227 112.225 101.781 111.751C102.493 111.141 103.027 110.333 103.946 109.95C104.161 109.861 104.256 109.484 104.544 109.012C103.361 109.012 102.407 109.07 101.463 108.993C100.797 108.94 100.39 109.233 99.9801 109.663C99.8757 109.773 99.6484 109.765 99.4439 109.82C99.35 109.554 99.2701 109.329 99.1525 108.996C97.9696 109.163 96.7603 109.335 95.493 109.514L95.4948 109.512ZM69.8125 139.263C70.2618 139.043 70.6848 138.844 71.0683 138.587C71.2561 138.462 71.3 138.12 71.4334 137.823H67.8599C67.9336 139.101 69.1034 138.088 69.4342 138.726C69.4342 138.888 69.4395 139.067 69.8125 139.263ZM68.7682 140.033C69.0779 139.833 69.3517 139.655 69.4342 139.451C69.5378 139.398 69.6378 139.349 69.7388 139.299C68.8743 139.266 68.4715 139.324 68.7682 140.032V140.033ZM71.113 180.906H93.766C94.1942 180.906 94.5418 180.558 94.5418 180.129C94.5418 179.701 94.1942 179.353 93.766 179.353H71.113C70.6848 179.353 70.3373 179.701 70.3373 180.129C70.3373 180.558 70.6848 180.906 71.113 180.906ZM79.5729 232.113C79.5729 232.691 80.0406 233.159 80.6181 233.159H169.319C169.897 233.159 170.365 232.691 170.365 232.113C170.365 231.535 169.897 231.067 169.319 231.067H80.6181C80.0406 231.067 79.5729 231.535 79.5729 232.113ZM180.645 180.906C181.074 180.906 181.421 180.558 181.421 180.129C181.421 179.701 181.074 179.353 180.645 179.353H157.992C157.564 179.353 157.217 179.701 157.217 180.129C157.217 180.558 157.564 180.906 157.992 180.906H180.645ZM195.002 127.508C195.235 127.382 195.545 127.213 195.924 127.007C195.395 126.864 195.002 126.843 194.707 126.661C193.935 126.187 193.127 125.982 192.232 126.088C190.881 126.248 189.529 126.404 188.107 126.57C188.601 127.382 189.342 127.737 190.13 128.03C190.409 128.134 190.759 128.181 190.946 128.379C192.315 129.828 194.032 130.178 195.906 129.955C196.741 129.856 197.583 129.633 197.837 128.625C196.986 128.033 195.721 129.009 195.003 127.508H195.002ZM53.2613 106.192C54.0108 106.681 54.8498 107.033 55.6413 107.46C56.8919 108.136 58.1363 108.823 59.3851 109.505C58.9946 110.13 58.4417 110.42 58.0064 110.134C57.2148 109.613 56.3153 109.487 55.4641 109.243C54.7409 109.037 54.0906 108.386 53.2447 108.692C52.8278 110.115 53.3675 110.971 54.6681 111.532C55.4921 111.888 56.1881 112.57 57.0261 112.856C57.9485 113.17 58.7436 113.705 59.6308 114.065C59.9502 114.194 60.2337 114.411 60.5672 114.607C59.6045 115.331 59.099 115.385 58.1126 114.953C56.5259 114.26 54.934 113.578 53.2455 112.849V114.744C55.5553 116.43 58.2144 117.485 60.8419 118.435C60.2004 119.163 59.3052 119.328 58.5944 119.044C57.9502 118.786 57.221 118.919 56.6813 118.531C56.2091 118.191 56.0766 118.655 56.0108 118.802C55.8756 119.104 55.902 119.479 55.8493 119.936C57.9678 119.55 59.2517 121.088 60.9024 121.548V122.902C60.6488 122.944 60.511 122.933 60.4101 122.988C59.7256 123.367 59.0849 123.862 58.3601 124.122C57.4456 124.45 56.8462 123.484 55.9836 123.332C54.7207 123.11 54.3416 123.138 53.4877 124.306C53.8476 124.637 54.1609 125.107 54.5935 125.287C55.9704 125.861 57.5044 126.007 58.8006 126.843C59.0288 126.991 59.5369 126.996 59.737 126.839C60.3241 126.377 61.0411 126.55 61.8318 126.386C60.991 125.988 60.4075 125.584 60.0292 124.786C60.3495 124.557 60.6576 124.157 60.92 124.185C61.5975 124.255 62.0863 123.813 62.6848 123.709C62.7541 123.696 62.7918 123.507 62.8629 123.362C62.7251 123.124 62.5751 122.865 62.3487 122.474C63.8239 121.422 64.074 119.878 64.0327 118.187C64.0187 117.608 64.2899 117.021 64.4461 116.371C64.999 116.4 65.4772 116.425 66.0187 116.454V119.957C66.7515 120.259 67.4693 120.556 68.2363 120.872V121.659C67.5597 121.847 66.9287 122.024 66.2574 122.212C66.8454 122.933 67.3114 123.505 67.8432 124.158C68.0011 124.127 68.3179 124.109 68.6014 124.004C69.6115 123.628 70.5654 122.969 71.5448 122.711C73.7677 122.125 75.5659 120.775 77.4667 119.688C80.0108 118.233 82.3943 116.424 84.6181 114.503C86.619 112.773 88.5128 110.919 90.6374 109.33C92.189 108.168 93.608 106.839 95.0815 105.587C97.128 103.849 99.3105 102.283 101.325 100.521C103.157 98.9179 105.185 97.5881 107.074 96.0677C108.178 95.1789 109.586 94.6624 111.122 94.6273C112.836 94.5877 114.433 94.8231 115.881 95.8033C116.17 95.9992 116.738 96.2732 116.846 96.1687C117.699 95.3396 118.465 96.6088 119.277 96.2153C119.401 96.1547 119.691 96.2328 119.784 96.3461C120.593 97.3343 122.058 96.8485 122.893 97.7532C123.579 97.6302 124.018 98.1599 124.563 98.4014C125.11 98.6438 125.64 98.9284 126.162 99.2218C126.636 99.4888 127.086 99.7988 127.552 100.081C128.068 100.393 128.59 100.695 129.11 101C128.997 102.097 130.071 101.41 130.468 101.909C131.359 103.029 132.711 103.661 133.777 104.587C134.669 105.362 136.046 105.994 135.774 107.623C135.755 107.739 136.08 107.88 136.13 108.045C136.343 108.736 136.512 109.44 136.729 110.257C137.403 110.354 138.122 110.472 138.845 110.558C140.146 110.713 141.439 110.593 142.774 110.852C144.344 111.156 146.131 111.346 147.581 109.889C148.081 109.386 148.973 109.008 149.899 108.976C151.052 108.935 152.238 109.099 153.131 109.611C154.872 110.611 156.35 112.029 157.468 113.749C158.135 114.778 159.478 115.328 159.584 116.751C160.615 116.711 160.498 117.806 161.057 118.252C161.659 118.734 162.166 119.334 162.714 119.883C163.399 120.569 164.3 121.149 164.705 121.974C165.053 122.684 165.713 122.795 166.162 123.246C166.511 123.596 167.338 123.788 167.814 123.63C169.139 123.193 170.592 123.283 171.84 122.593C173.914 122.793 176.004 122.268 178.093 122.926C178.994 123.209 179.977 123.611 181.023 123.395C181.255 123.347 181.547 123.665 181.83 123.741C181.967 123.777 182.149 123.641 182.442 123.535C182.067 123.025 181.75 122.594 181.326 122.015C182.365 121.443 183.297 120.93 184.229 120.417C184.442 119.137 182.993 118.904 182.611 117.817C182.849 117.615 183.12 117.39 183.385 117.159C183.798 116.801 184.381 116.511 184.57 116.057C184.776 115.561 184.753 114.866 184.573 114.346C184.436 113.954 183.892 113.704 183.497 113.362C183.699 113.324 183.818 113.291 183.939 113.28C185.268 113.164 185.36 113.081 185.39 111.87C185.402 111.44 185.392 111.011 185.392 110.619H186.556C186.556 111.245 186.543 111.819 186.559 112.39C186.585 113.35 186.785 113.56 187.755 113.663C187.988 113.688 188.227 113.667 188.888 113.667C188.119 114.159 187.726 114.41 187.414 114.609C186.821 116.082 188.157 116.277 188.84 116.896V118.627C188.447 118.689 188.092 118.744 187.773 118.794V119.767C188.268 119.973 188.722 120.133 189.148 120.345C189.813 120.675 189.739 121.329 189.633 121.869C189.527 122.403 189.08 122.664 188.485 122.6C188.121 122.561 187.749 122.593 187.239 122.593C187.375 123.105 187.37 123.525 187.575 123.774C188.186 124.517 188.967 124.992 189.995 124.925C192.138 124.786 194.282 124.56 196.425 124.569C197.899 124.575 199.248 124.382 200.461 123.58V122.593C199.318 122.593 198.23 122.572 197.143 122.603C196.663 122.616 196.309 122.495 195.967 122.138C195.587 121.743 195.341 121.358 195.505 120.85C196.689 120.181 197.829 119.51 198.995 118.888C199.891 118.41 200.816 117.982 201.736 117.551C202.425 117.229 202.615 116.739 202.309 115.892C201.762 116.065 201.15 116.096 200.774 116.411C199.969 117.082 199.274 116.75 198.556 116.378C197.634 115.9 197.501 115.454 198.226 114.655C198.613 114.228 198.293 114.088 198.215 113.778C198.115 113.377 198.191 112.931 198.191 112.568C199.65 112.448 200.583 111.577 201.685 111.119C202.179 110.913 202.139 110.393 202.029 109.948C201.82 109.095 200.97 108.752 200.474 108.12C200.254 107.84 199.57 107.899 199.092 107.854C198.668 107.814 198.238 107.846 197.899 107.846C197.541 106.655 198.298 106.383 198.997 106.075C198.878 104.837 198.201 103.961 197.344 103.188L195.824 101.402C194.511 99.6135 193.35 97.704 191.814 96.2241C190.24 96.167 188.843 96.044 187.927 94.3936C188.604 94.3049 189.127 94.2364 189.637 94.1688C189.751 93.1157 189.204 92.4596 188.587 91.821C188.148 91.3678 187.693 90.9137 187.348 90.392C187.037 89.9203 186.488 89.6929 186.257 89.136C186.075 88.6942 185.749 88.3034 185.447 87.923C185.207 87.6209 184.905 87.3688 184.631 87.0939L183.261 85.722C182.803 85.2644 182.387 84.7549 181.878 84.365C181.387 83.9882 181.482 83.4172 181.245 83.0071C181.053 82.6751 180.418 82.5986 179.862 82.358C180.265 81.6184 179.862 81.08 179.295 80.5697C179.078 80.3747 178.845 80.0761 178.825 79.8082C178.781 79.2233 178.56 78.9141 177.989 78.7191C177.13 78.4257 176.819 77.6765 176.769 76.8439C176.119 76.7929 175.533 76.7473 174.831 76.6928C175.195 76.3292 175.423 76.1008 175.651 75.8725C174.959 74.6375 174.125 73.5247 173.174 72.4602C172.255 71.4334 171.604 70.1669 170.873 69.0619C170.191 68.8555 169.817 69.2113 169.49 69.6241C167.887 71.6512 166.085 73.5106 164.367 75.4307C162.567 77.4403 160.806 79.4367 159.304 81.6887C158.737 82.5398 157.736 83.116 156.884 83.7519C156.688 83.8977 156.291 83.773 155.737 83.773C156.17 83.3399 156.623 83.0967 156.637 82.8296C156.672 82.1999 156.833 81.8512 157.464 81.6123C157.85 81.4665 158.229 81.0589 158.415 80.6742C158.987 79.4832 160.066 78.7665 160.907 77.8302C161.294 77.399 161.843 77.0661 162.101 76.5751C162.719 75.4008 163.625 74.439 164.502 73.5177C166.195 71.7408 167.826 69.9411 169.157 67.7919C168.207 66.6404 167.852 64.9909 166.245 64.3708C166.146 64.3331 166.012 64.2004 166.014 64.1152C166.039 63.1306 165.471 62.6572 164.615 62.3797C164.517 62.3481 164.52 62.0468 164.449 61.8825C164.33 61.6076 164.25 61.28 164.046 61.0885C163.741 60.8031 163.246 60.6889 163.013 60.3692C162.744 59.9985 162.692 59.4751 162.504 59.0368C162.425 58.8523 162.255 58.6951 162.098 58.5598C161.72 58.2349 161.325 57.931 161.054 57.7123C161.111 57.4092 161.241 57.1115 161.167 57.0465C160.554 56.5063 159.915 56.1708 159.598 55.188C159.261 54.1392 158.093 53.3795 157.39 52.4186C157.075 51.9882 156.224 52.1999 156.293 51.3541C156.354 50.5979 155.367 50.4257 155.233 49.8671C154.909 48.5101 153.873 47.9146 152.833 47.312C151.909 46.7754 151.332 46.0455 151.28 44.9748C151.261 44.5664 151.169 44.2757 150.873 43.9665C150.406 43.4791 149.928 42.9477 149.652 42.3451C149.32 41.6232 148.869 41.1418 148.144 40.8599C147.991 40.8002 147.892 40.5894 147.777 40.4401C147.341 39.87 146.909 39.2965 146.425 38.6579C146.27 39.0462 146.181 39.2684 146.078 39.5257C145.887 39.2183 145.675 38.9522 145.548 38.6492C145.456 38.4287 145.423 38.1511 145.461 37.9158C145.553 37.3633 145.218 37.026 144.836 36.8381C143.396 36.1319 142.661 34.9286 142.268 33.446C142.176 33.0982 142.128 32.7135 141.941 32.4219C141.772 32.1592 141.394 32.038 141.193 31.7868C140.578 31.0165 139.981 30.2296 139.42 29.4197C138.609 28.2481 137.053 28.2024 136.142 27.1932C136.284 26.8278 136.426 26.4624 136.597 26.0198C135.942 25.9618 135.458 25.9196 134.9 25.8704C134.996 25.5815 135.001 25.3452 135.118 25.2521C135.879 24.654 135.956 24.4643 135.454 23.9241C135.173 23.6202 134.808 23.3927 134.203 22.9087C134.203 23.7985 134.192 24.3562 134.207 24.914C134.218 25.3549 134.182 26.1506 134.303 26.1779C135 26.3342 135.049 27.245 135.852 27.3197C135.365 27.4725 134.881 27.4971 134.591 27.7457C134.18 28.097 133.83 28.422 133.257 28.2797C132.947 27.7975 132.637 27.317 132.322 26.8261C132.552 26.7655 132.727 26.7198 133.039 26.6381C133.039 25.9873 133.041 25.2916 133.039 24.5969C133.037 23.8503 132.989 23.1125 133.398 22.4125C133.496 22.2456 133.185 21.8714 133.139 21.5816C133.017 20.806 132.136 20.5461 131.948 19.9444C131.733 19.2602 131.103 19.0635 130.771 18.5312C130.486 18.0727 129.739 17.9014 129.145 17.5756C129.455 17.4465 129.784 17.414 129.873 17.2506C130.043 16.9414 129.945 16.7122 129.498 16.6173C129.063 16.5251 128.93 16.0991 128.728 15.6828C128.289 14.7772 127.633 13.9762 127.018 13.061C126.781 13.4229 126.48 13.6741 126.469 13.9376C126.417 15.1637 126.496 16.3969 126.431 17.6221C126.369 18.8008 126.128 19.9708 126.073 21.1495C126.008 22.5697 126.058 23.9944 126.058 25.4172C126.058 26.1287 125.794 27.0096 126.117 27.5138C126.674 28.3833 126.064 28.8471 125.841 29.4689C125.782 29.6367 125.698 29.7965 125.661 29.88C125.936 30.4061 126.169 30.8505 126.438 31.3644C126.029 31.5462 125.729 31.6797 125.282 31.8791V30.7258C125.282 28.5265 125.281 26.3281 125.285 24.1287C125.285 23.8775 125.241 23.5824 125.352 23.383C126.027 22.1736 125.58 20.8789 125.648 19.6317C125.72 18.2896 125.618 16.9379 125.591 15.5914C124.868 15.1795 125.952 14.9573 125.69 14.5102C125.298 13.8445 125.041 13.1014 124.724 12.3873C124.63 12.4681 124.551 12.5806 124.446 12.6183C123.165 13.0838 122.968 13.1427 122.603 14.1194C122.343 14.815 122.06 15.3578 121.379 15.732C120.944 15.9718 120.315 16.454 120.331 16.8035C120.372 17.7258 119.628 17.8549 119.183 18.2545C118.601 18.778 118.252 19.3928 118.099 20.142C117.091 20.2905 117.178 21.4525 116.412 21.9505C115.752 22.38 115.576 23.4463 114.82 24.0462C114.07 24.6408 113.519 25.4884 112.873 26.235C112.873 27.447 112.981 28.689 112.841 29.9011C112.705 31.0728 113.79 32.1373 113.096 33.2721C112.758 33.0982 112.436 32.933 112.114 32.767C112.02 31.2721 112.223 29.7579 111.983 28.1734C110.54 29.1404 110.32 29.3609 109.77 30.3622C109.275 31.2651 108.611 32.0986 107.986 32.861C106.84 34.2611 105.712 35.6734 104.622 37.1191C104.252 37.611 103.587 37.8868 103.529 38.6061C103.472 39.3018 102.445 38.8099 102.348 39.6513C102.287 40.181 101.41 40.5051 101.612 41.2797C101.622 41.3193 101.425 41.4097 101.328 41.48C100.271 42.2389 99.0595 42.8642 98.891 44.3837C98.8814 44.4672 98.5646 44.4944 98.418 44.5893C98.0485 44.829 97.7037 45.0592 97.7212 45.6169C97.7291 45.8725 97.5088 46.2379 97.2833 46.381C96.0608 47.1557 95.5562 48.5127 94.6497 49.5386C94.1951 50.0524 93.8704 50.864 93.3175 51.0581C92.7067 51.2733 92.5382 51.7678 92.461 52.0796C92.3101 52.6909 91.9213 53.0053 91.565 53.4392C90.3882 54.8683 89.2965 56.3693 88.1846 57.851C87.9301 58.1901 87.7668 58.6046 87.4825 58.9103C87.2096 59.2037 86.7603 59.3451 86.5198 59.6551C86.1933 60.0758 86.0959 60.8654 85.7142 61.0121C84.9753 61.2958 85.0999 61.9467 84.7831 62.3823C84.1574 63.2413 83.4193 64.0177 82.7489 64.8442C82.3618 65.3221 82.0126 65.8306 81.6492 66.3269C81.3465 66.7405 80.6111 66.6589 80.5549 67.3993C80.5093 68.0009 79.8274 68.2029 79.508 68.6676C78.5628 70.0421 77.6931 71.4782 76.49 72.6613C75.945 73.1971 75.787 74.1193 74.8691 74.2827C74.7094 75.2726 74.0064 75.8918 73.3675 76.5751C72.6857 77.305 71.9608 78.0393 71.4764 78.8965C71.0902 79.5798 70.1644 79.8943 70.1898 80.8578C70.1942 81.0379 69.8511 81.3909 69.6826 81.3822C69.042 81.3506 69.106 81.9083 68.8866 82.2139C68.2793 83.058 67.7063 83.9258 67.0964 84.7672C66.6602 85.3689 66.1863 85.9433 65.73 86.53C65.2728 87.1167 64.9287 87.9107 64.3302 88.2375C63.5887 88.6433 63.479 89.2994 63.142 89.8852C63.049 90.0477 62.8612 90.1522 62.7392 90.3024C61.6387 91.6559 60.5435 93.0129 59.4474 94.3699C59.457 95.3949 58.1486 95.3352 57.9336 96.2364C57.8283 96.6799 57.4237 97.0576 57.1385 97.4528C56.4584 98.3979 55.7677 99.3351 55.0832 100.273C55.6396 100.811 56.0792 101.337 57.0261 101.33C57.5492 101.326 58.2951 101.442 58.7752 101.692C59.4974 102.069 60.7734 101.671 60.9463 103.09C60.3469 103.258 59.5659 103.729 59.2394 103.513C58.6084 103.096 58.0169 103.295 57.4184 103.186C56.5733 103.031 55.7519 102.789 54.8796 102.71C54.5408 102.679 54.0591 102.263 53.7063 102.492C53.3122 102.748 53.0165 103.21 52.7734 103.636C52.1029 104.813 52.2196 105.511 53.2657 106.194L53.2613 106.192ZM48.9156 159.529V161.021C51.7659 161.021 54.4575 161.021 57.1499 161.017C57.2017 161.017 57.2605 160.97 57.3035 160.931C57.3473 160.891 57.3763 160.834 57.4886 160.676C57.3596 160.544 57.1174 160.244 57.0814 160.267C56.2197 160.818 55.2587 160.544 54.3451 160.646C53.4114 160.752 53.242 160.055 52.9744 159.53H48.9147L48.9156 159.529ZM43.4342 93.6989C44.052 94.2944 44.8559 94.7704 45.0814 95.6997C46.0705 95.9158 46.4513 96.9337 47.2315 97.3764C48.3978 97.1138 49.0288 96.3918 49.3035 95.1288C48.6988 94.7318 48.0617 94.2733 47.3851 93.8807C46.6119 93.4319 45.6606 93.2738 45.056 92.5544C44.4882 91.879 43.8502 91.7473 43.0726 92.0977C43.1086 92.6581 42.9191 93.2018 43.4342 93.6989ZM19.407 121.228C20.4846 122.469 21.8888 122.886 23.4842 123.007C24.9857 123.119 26.145 122.308 27.4298 121.82C27.5957 121.757 27.8212 121.742 27.9151 121.622C28.0301 121.477 28.4355 121.426 28.2056 121.102C26.088 120.98 24.1591 120.493 22.382 119.252C21.615 118.716 20.6865 117.98 19.4061 118.439V121.23L19.407 121.228ZM242.416 208.281C242.379 192.564 242.392 176.845 242.392 161.128C242.392 160.804 242.407 160.479 242.388 160.157C242.347 159.447 242.049 159.133 241.383 159.081C241.19 159.066 240.995 159.079 240.801 159.079C235.437 159.079 230.072 159.028 224.709 159.093C219.404 159.158 214.083 158.703 208.663 159.606C208.424 159.911 208.096 160.331 207.57 161.001H240.414V209.146C239.632 209.16 239.097 209.191 238.507 209.647C237.864 210.143 237.28 210.705 236.637 211.189C236.066 211.619 235.422 212.067 234.747 212.213C233.855 212.406 233.835 213.369 233.061 213.697C231.959 214.163 230.97 214.908 229.963 215.578C227.173 217.433 224.41 219.331 221.61 221.171C220.401 221.965 219.093 222.608 217.889 223.409C216.761 224.158 215.793 225.181 214.609 225.807C211.326 227.546 208.448 229.9 205.26 231.779C203.482 232.827 201.799 234.035 200.059 235.149C198.58 236.096 197.07 236.992 195.595 237.943C193.449 239.326 191.332 240.753 189.185 242.135C187.146 243.448 185.066 244.696 183.041 246.03C181.154 247.274 179.422 248.794 177.433 249.83C174.624 251.294 172.164 253.269 169.448 254.866C166.457 256.624 163.687 258.76 160.805 260.71C160.313 261.044 159.583 261.139 159.246 261.567C158.474 262.546 157.033 262.425 156.367 263.487C155.497 263.122 155.181 264.078 154.595 264.35C154.022 264.616 153.146 264.445 152.82 265.223C151.533 265.531 150.828 266.67 149.932 267.46C149.275 268.038 148.432 267.986 147.842 268.608C147.047 269.446 146.038 270.037 144.951 270.488C144.289 270.762 143.651 271.123 143.055 271.522C142.287 272.038 141.622 272.996 140.823 273.106C139.62 273.271 139.299 274.343 138.402 274.796C136.731 275.64 135.199 276.768 133.646 277.831C132.191 278.826 130.814 279.937 129.213 280.711C128.834 280.895 128.495 281.164 128.136 281.39C127.005 282.103 125.779 282.661 124.756 283.559C124.575 283.717 123.798 283.582 123.773 283.472C123.48 282.209 122.214 282.205 121.433 281.603C120.481 280.868 119.325 280.459 118.273 279.894C116.218 278.792 114.45 277.228 112.575 275.837C111.657 275.156 110.68 274.48 109.626 274.074C108.109 273.488 106.762 272.725 105.612 271.577C105.317 271.282 104.909 271.102 104.557 270.861C104.102 270.551 103.651 270.236 103.201 269.92C102.75 269.603 102.302 269.281 101.853 268.96C101.081 269.853 101.269 268.57 100.849 268.468C100.062 268.278 99.3289 267.758 98.6418 267.277C97.529 266.5 96.4838 265.625 95.3851 264.826C94.6479 264.29 93.8818 263.789 93.0964 263.327C92.8858 263.203 92.4689 263.382 92.3039 263.24C92.045 263.017 91.9187 262.638 91.7853 262.409C91.5685 262.461 91.2973 262.613 91.199 262.538C90.1205 261.712 89.1692 260.726 88.0143 259.993C87.4 259.604 86.8191 259.138 86.16 258.852C85.5062 258.567 84.9235 258.155 84.1749 258C83.5782 257.878 83.2649 257.097 82.5593 256.853C81.7774 256.581 80.9279 256.172 80.4101 255.564C79.8932 254.956 79.2833 254.589 78.6672 254.166C78.0082 253.713 77.3728 253.226 76.7348 252.744C76.0521 252.228 75.1095 252.328 74.4496 251.671C73.9976 251.222 73.2166 251.102 72.7699 250.65C72.2776 250.151 71.3912 250.055 71.2543 249.201C70.4943 249.36 70.1354 248.7 69.7221 248.326C67.7589 246.552 65.0639 245.963 63.1367 244.108C62.2811 243.285 61.0972 242.811 60.0977 242.127C59.4965 241.716 58.9129 241.301 58.1881 241.145C57.9564 240.237 56.9445 240.425 56.3776 239.868C55.5299 239.037 54.1407 238.808 53.4921 237.632C51.9169 237.099 50.7953 235.801 49.2877 235.143C48.3469 234.733 47.4974 234.115 46.5961 233.668C45.9546 233.35 46.2346 232.635 45.6009 232.414C44.8173 232.139 44.009 231.774 43.3851 231.242C42.5645 230.544 41.5816 230.274 40.6628 229.827C40.2837 229.643 39.6589 229.399 39.6396 229.145C39.5834 228.383 39.0788 228.67 38.712 228.529C38.3241 228.381 38.0011 228.05 37.6703 227.774C37.3842 227.535 37.1604 227.21 36.8515 227.012C36.0906 226.523 35.2806 226.112 34.5233 225.62C33.9546 225.251 33.4588 224.771 32.8892 224.404C32.3881 224.081 31.8265 223.851 31.2991 223.568C30.7163 223.257 30.1415 222.93 29.5632 222.61C29.5869 221.533 28.3504 222.248 28.0757 221.573C28.0546 221.52 27.7352 221.564 27.7299 221.533C27.4921 220.16 25.894 220.393 25.3175 219.487C24.9787 218.956 24.1608 219.645 24.0801 218.912C24.0011 218.2 23.2359 218.512 23.0103 218.074C22.1301 218.318 21.9783 216.914 21.0726 217.216C20.9498 216.792 20.8216 216.507 20.2345 216.464C19.9133 216.44 19.7027 215.667 19.3254 215.507C17.8537 214.883 16.7137 213.72 15.2964 213.059C13.9634 212.438 12.7558 211.672 11.5588 210.836C10.5847 210.156 9.89227 209.012 8.63558 209.04V160.976H45.0147C44.9893 160.423 44.9673 159.943 44.948 159.533H6.61364V207.308C6.61364 209.117 7.37596 210.506 8.90061 211.475C10.948 212.772 13.0129 214.042 15.0454 215.363C16.9348 216.592 18.7093 218.023 20.6786 219.099C24.3083 221.081 27.5535 223.641 31.0981 225.753C34.8023 227.96 38.3328 230.459 41.945 232.821C44.3337 234.382 46.7365 235.923 49.1271 237.482C50.0968 238.114 51.0367 238.792 52.0117 239.416C53.8993 240.625 55.8212 241.781 57.694 243.012C59.7326 244.35 61.6378 245.927 63.7756 247.074C66.3022 248.429 68.6058 250.094 70.9832 251.657C73.0183 252.996 75.1271 254.214 77.0937 255.674C78.1047 256.425 79.2289 257.068 80.2951 257.769C81.3298 258.449 82.5339 258.928 83.5852 259.618C85.6765 260.993 87.6572 262.546 89.802 263.826C91.5747 264.885 93.2877 266.023 95.0139 267.148C96.5374 268.142 98.0872 269.095 99.6133 270.084C100.585 270.713 101.524 271.394 102.499 272.018C104.54 273.325 106.602 274.598 108.643 275.907C110.229 276.924 111.841 277.91 113.358 279.026C114.93 280.182 116.723 280.962 118.291 282.112C118.834 282.51 119.38 282.906 119.942 283.275C121.316 284.174 122.701 285.058 124.14 285.986C124.33 285.885 124.622 285.594 124.854 285.635C125.682 285.782 126.177 285.357 126.669 284.814C126.823 284.643 127.081 284.57 127.285 284.442C129.132 283.285 131.002 282.158 132.82 280.956C135.262 279.343 137.582 277.523 140.111 276.066C142.739 274.552 145.211 272.805 147.777 271.203C149.27 270.27 150.766 269.294 152.221 268.282C153.647 267.291 155.233 266.463 156.615 265.392C157.633 264.604 158.683 263.818 159.75 263.155C161.399 262.132 163.037 261.097 164.643 260.007C165.132 259.674 165.711 259.471 166.252 259.217C166.414 259.141 166.73 259.105 166.736 259.033C166.78 258.428 167.166 258.236 167.666 258.029C168.163 257.823 168.55 257.345 169.049 257.155C170.708 256.521 172.125 255.472 173.569 254.505C176.653 252.438 179.815 250.488 182.902 248.422C184.659 247.246 186.475 246.134 188.231 244.937C189.985 243.742 191.809 242.652 193.587 241.492C194.812 240.692 195.942 239.714 197.238 239.059C200.179 237.574 202.736 235.508 205.522 233.793C208.009 232.261 210.423 230.609 212.852 228.982C215.263 227.365 217.745 225.838 220.211 224.297C221.155 223.706 221.969 222.914 222.912 222.383C224.654 221.4 226.298 220.271 227.999 219.231C228.572 218.881 229.089 218.44 229.656 218.076C231.542 216.864 233.471 215.714 235.326 214.453C237.135 213.223 238.883 211.885 240.851 210.925C242.036 210.347 242.423 209.573 242.42 208.279L242.416 208.281ZM59.4167 205.071C59.4167 201.489 58.7541 199.031 57.4272 197.697C56.5935 196.856 55.3807 196.437 53.7888 196.437C52.1968 196.437 51.1165 197.534 50.4347 199.725C49.7537 201.917 49.4123 204.804 49.4123 208.386C49.4123 212.655 49.7905 215.686 50.5496 217.478C51.307 219.27 52.3873 220.164 53.7896 220.164C55.3061 220.164 56.5759 219.27 57.5983 217.478C58.812 215.383 59.4175 212.484 59.4175 208.786V205.07L59.4167 205.071ZM112.816 220.164C114.256 220.164 115.554 219.564 116.71 218.365C117.866 217.164 118.444 215.708 118.444 213.992V206.387C117.99 206.995 117.317 207.369 116.426 207.5C115.535 207.635 114.673 207.76 113.84 207.873C112.74 208.139 111.869 208.748 111.225 209.702C110.465 210.845 110.087 212.447 110.087 214.503C110.087 216.717 110.305 218.212 110.741 218.992C111.176 219.775 111.869 220.164 112.816 220.164H112.816ZM143.982 174.854C143.548 173.575 142.849 172.937 141.884 172.937C140.522 172.937 139.563 173.544 139.006 174.758C138.45 175.974 138.171 177.86 138.171 180.416H144.63C144.63 177.987 144.414 176.134 143.981 174.855L143.982 174.854Z" fill="white"/>
</svg>
